<svg width="332" height="332" viewBox="0 0 332 332" fill="none"
    xmlns="http://www.w3.org/2000/svg">
    <rect width="332" height="332" fill="#000212"/>
    <path d="M20.1212 20.1212H30.1818V30.1818H20.1212V20.1212Z" fill="white"/>
    <path d="M30.1818 20.1212H40.2424V30.1818H30.1818V20.1212Z" fill="white"/>
    <path d="M40.2424 20.1212H50.303V30.1818H40.2424V20.1212Z" fill="white"/>
    <path d="M50.303 20.1212H60.3636V30.1818H50.303V20.1212Z" fill="white"/>
    <path d="M60.3636 20.1212H70.4243V30.1818H60.3636V20.1212Z" fill="white"/>
    <path d="M70.4243 20.1212H80.4849V30.1818H70.4243V20.1212Z" fill="white"/>
    <path d="M80.4849 20.1212H90.5455V30.1818H80.4849V20.1212Z" fill="white"/>
    <path d="M130.788 20.1212H140.849V30.1818H130.788V20.1212Z" fill="white"/>
    <path d="M150.909 20.1212H160.97V30.1818H150.909V20.1212Z" fill="white"/>
    <path d="M160.97 20.1212H171.03V30.1818H160.97V20.1212Z" fill="white"/>
    <path d="M171.03 20.1212H181.091V30.1818H171.03V20.1212Z" fill="white"/>
    <path d="M181.091 20.1212H191.152V30.1818H181.091V20.1212Z" fill="white"/>
    <path d="M191.152 20.1212H201.212V30.1818H191.152V20.1212Z" fill="white"/>
    <path d="M201.212 20.1212H211.273V30.1818H201.212V20.1212Z" fill="white"/>
    <path d="M241.455 25.1212C241.455 22.3598 243.693 20.1212 246.455 20.1212H251.515V30.1818H241.455V25.1212Z" fill="white"/>
    <path d="M251.515 20.1212H261.576V30.1818H251.515V20.1212Z" fill="white"/>
    <path d="M261.576 20.1212H271.636V30.1818H261.576V20.1212Z" fill="white"/>
    <path d="M271.636 20.1212H281.697V30.1818H271.636V20.1212Z" fill="white"/>
    <path d="M281.697 20.1212H291.758V30.1818H281.697V20.1212Z" fill="white"/>
    <path d="M291.758 20.1212H301.818V30.1818H291.758V20.1212Z" fill="white"/>
    <path d="M301.818 20.1212H306.879C309.64 20.1212 311.879 22.3598 311.879 25.1212V30.1818H301.818V20.1212Z" fill="white"/>
    <path d="M20.1212 30.1818H30.1818V40.2424H20.1212V30.1818Z" fill="white"/>
    <path d="M80.4849 30.1818H90.5455V40.2424H80.4849V30.1818Z" fill="white"/>
    <path d="M120.727 30.1818H130.788V40.2424H120.727V30.1818Z" fill="white"/>
    <path d="M140.849 30.1818H150.909V40.2424H140.849V30.1818Z" fill="white"/>
    <path d="M150.909 30.1818H160.97V40.2424H150.909V30.1818Z" fill="white"/>
    <path d="M181.091 30.1818H191.152V40.2424H181.091V30.1818Z" fill="white"/>
    <path d="M191.152 30.1818H201.212V40.2424H191.152V30.1818Z" fill="white"/>
    <path d="M201.212 30.1818H211.273V40.2424H201.212V30.1818Z" fill="white"/>
    <path d="M241.455 30.1818H251.515V40.2424H241.455V30.1818Z" fill="white"/>
    <path d="M301.818 30.1818H311.879V40.2424H301.818V30.1818Z" fill="white"/>
    <path d="M20.1212 40.2424H30.1818V50.303H20.1212V40.2424Z" fill="white"/>
    <path d="M40.2424 40.2424H50.303V50.303H40.2424V40.2424Z" fill="white"/>
    <path d="M50.303 40.2424H60.3636V50.303H50.303V40.2424Z" fill="white"/>
    <path d="M60.3636 40.2424H70.4243V50.303H60.3636V40.2424Z" fill="white"/>
    <path d="M80.4849 40.2424H90.5455V50.303H80.4849V40.2424Z" fill="white"/>
    <path d="M110.667 40.2424H120.727V50.303H110.667V40.2424Z" fill="white"/>
    <path d="M140.849 40.2424H150.909V50.303H140.849V40.2424Z" fill="white"/>
    <path d="M150.909 40.2424H160.97V50.303H150.909V40.2424Z" fill="white"/>
    <path d="M181.091 40.2424H191.152V50.303H181.091V40.2424Z" fill="white"/>
    <path d="M221.333 40.2424H231.394V50.303H221.333V40.2424Z" fill="white"/>
    <path d="M241.455 40.2424H251.515V50.303H241.455V40.2424Z" fill="white"/>
    <path d="M261.576 40.2424H271.636V50.303H261.576V40.2424Z" fill="white"/>
    <path d="M271.636 40.2424H281.697V50.303H271.636V40.2424Z" fill="white"/>
    <path d="M281.697 40.2424H291.758V50.303H281.697V40.2424Z" fill="white"/>
    <path d="M301.818 40.2424H311.879V50.303H301.818V40.2424Z" fill="white"/>
    <path d="M20.1212 50.303H30.1818V60.3636H20.1212V50.303Z" fill="white"/>
    <path d="M40.2424 50.303H50.303V60.3636H40.2424V50.303Z" fill="white"/>
    <path d="M50.303 50.303H60.3636V60.3636H50.303V50.303Z" fill="white"/>
    <path d="M60.3636 50.303H70.4243V60.3636H60.3636V50.303Z" fill="white"/>
    <path d="M80.4849 50.303H90.5455V60.3636H80.4849V50.303Z" fill="white"/>
    <path d="M110.667 50.303H120.727V60.3636H110.667V50.303Z" fill="white"/>
    <path d="M120.727 50.303H130.788V60.3636H120.727V50.303Z" fill="white"/>
    <path d="M160.97 50.303H171.03V60.3636H160.97V50.303Z" fill="white"/>
    <path d="M181.091 50.303H191.152V60.3636H181.091V50.303Z" fill="white"/>
    <path d="M191.152 50.303H201.212V60.3636H191.152V50.303Z" fill="white"/>
    <path d="M211.273 50.303H221.333V60.3636H211.273V50.303Z" fill="white"/>
    <path d="M241.455 50.303H251.515V60.3636H241.455V50.303Z" fill="white"/>
    <path d="M261.576 50.303H271.636V60.3636H261.576V50.303Z" fill="white"/>
    <path d="M271.636 50.303H281.697V60.3636H271.636V50.303Z" fill="white"/>
    <path d="M281.697 50.303H291.758V60.3636H281.697V50.303Z" fill="white"/>
    <path d="M301.818 50.303H311.879V60.3636H301.818V50.303Z" fill="white"/>
    <path d="M20.1212 60.3636H30.1818V70.4242H20.1212V60.3636Z" fill="white"/>
    <path d="M40.2424 60.3636H50.303V70.4242H40.2424V60.3636Z" fill="white"/>
    <path d="M50.303 60.3636H60.3636V70.4242H50.303V60.3636Z" fill="white"/>
    <path d="M60.3636 60.3636H70.4243V70.4242H60.3636V60.3636Z" fill="white"/>
    <path d="M80.4849 60.3636H90.5455V70.4242H80.4849V60.3636Z" fill="white"/>
    <path d="M100.606 60.3636H110.667V70.4242H100.606V60.3636Z" fill="white"/>
    <path d="M120.727 60.3636H130.788V70.4242H120.727V60.3636Z" fill="white"/>
    <path d="M140.849 60.3636H150.909V70.4242H140.849V60.3636Z" fill="white"/>
    <path d="M150.909 60.3636H160.97V70.4242H150.909V60.3636Z" fill="white"/>
    <path d="M171.03 60.3636H181.091V70.4242H171.03V60.3636Z" fill="white"/>
    <path d="M211.273 60.3636H221.333V70.4242H211.273V60.3636Z" fill="white"/>
    <path d="M241.455 60.3636H251.515V70.4242H241.455V60.3636Z" fill="white"/>
    <path d="M261.576 60.3636H271.636V70.4242H261.576V60.3636Z" fill="white"/>
    <path d="M271.636 60.3636H281.697V70.4242H271.636V60.3636Z" fill="white"/>
    <path d="M281.697 60.3636H291.758V70.4242H281.697V60.3636Z" fill="white"/>
    <path d="M301.818 60.3636H311.879V70.4242H301.818V60.3636Z" fill="white"/>
    <path d="M20.1212 70.4242H30.1818V80.4849H20.1212V70.4242Z" fill="white"/>
    <path d="M80.4849 70.4242H90.5455V80.4849H80.4849V70.4242Z" fill="white"/>
    <path d="M110.667 70.4242H120.727V80.4849H110.667V70.4242Z" fill="white"/>
    <path d="M130.788 70.4242H140.849V80.4849H130.788V70.4242Z" fill="white"/>
    <path d="M140.849 70.4242H150.909V80.4849H140.849V70.4242Z" fill="white"/>
    <path d="M150.909 70.4242H160.97V80.4849H150.909V70.4242Z" fill="white"/>
    <path d="M160.97 70.4242H171.03V80.4849H160.97V70.4242Z" fill="white"/>
    <path d="M191.152 70.4242H201.212V80.4849H191.152V70.4242Z" fill="white"/>
    <path d="M201.212 70.4242H211.273V80.4849H201.212V70.4242Z" fill="white"/>
    <path d="M211.273 70.4242H221.333V80.4849H211.273V70.4242Z" fill="white"/>
    <path d="M241.455 70.4242H251.515V80.4849H241.455V70.4242Z" fill="white"/>
    <path d="M301.818 70.4242H311.879V80.4849H301.818V70.4242Z" fill="white"/>
    <path d="M20.1212 80.4849H30.1818V90.5455H20.1212V80.4849Z" fill="white"/>
    <path d="M30.1818 80.4849H40.2424V90.5455H30.1818V80.4849Z" fill="white"/>
    <path d="M40.2424 80.4849H50.303V90.5455H40.2424V80.4849Z" fill="white"/>
    <path d="M50.303 80.4849H60.3636V90.5455H50.303V80.4849Z" fill="white"/>
    <path d="M60.3636 80.4849H70.4243V90.5455H60.3636V80.4849Z" fill="white"/>
    <path d="M70.4243 80.4849H80.4849V90.5455H70.4243V80.4849Z" fill="white"/>
    <path d="M80.4849 80.4849H90.5455V90.5455H80.4849V80.4849Z" fill="white"/>
    <path d="M100.606 80.4849H110.667V90.5455H100.606V80.4849Z" fill="white"/>
    <path d="M120.727 80.4849H130.788V90.5455H120.727V80.4849Z" fill="white"/>
    <path d="M140.849 80.4849H150.909V90.5455H140.849V80.4849Z" fill="white"/>
    <path d="M160.97 80.4849H171.03V90.5455H160.97V80.4849Z" fill="white"/>
    <path d="M181.091 80.4849H191.152V90.5455H181.091V80.4849Z" fill="white"/>
    <path d="M201.212 80.4849H211.273V90.5455H201.212V80.4849Z" fill="white"/>
    <path d="M221.333 80.4849H231.394V90.5455H221.333V80.4849Z" fill="white"/>
    <path d="M241.455 80.4849H251.515V90.5455H246.455C243.693 90.5455 241.455 88.3069 241.455 85.5455V80.4849Z" fill="white"/>
    <path d="M251.515 80.4849H261.576V90.5455H251.515V80.4849Z" fill="white"/>
    <path d="M261.576 80.4849H271.636V90.5455H261.576V80.4849Z" fill="white"/>
    <path d="M271.636 80.4849H281.697V90.5455H271.636V80.4849Z" fill="white"/>
    <path d="M281.697 80.4849H291.758V90.5455H281.697V80.4849Z" fill="white"/>
    <path d="M291.758 80.4849H301.818V90.5455H291.758V80.4849Z" fill="white"/>
    <path d="M301.818 80.4849H311.879V85.5455C311.879 88.3069 309.64 90.5455 306.879 90.5455H301.818V80.4849Z" fill="white"/>
    <path d="M100.606 90.5455H110.667V100.606H100.606V90.5455Z" fill="white"/>
    <path d="M110.667 90.5455H120.727V100.606H110.667V90.5455Z" fill="white"/>
    <path d="M120.727 90.5455H130.788V100.606H120.727V90.5455Z" fill="white"/>
    <path d="M160.97 90.5455H171.03V100.606H160.97V90.5455Z" fill="white"/>
    <path d="M171.03 90.5455H181.091V100.606H171.03V90.5455Z" fill="white"/>
    <path d="M181.091 90.5455H191.152V100.606H181.091V90.5455Z" fill="white"/>
    <path d="M211.273 90.5455H221.333V100.606H211.273V90.5455Z" fill="white"/>
    <path d="M40.2424 100.606H50.303V110.667H40.2424V100.606Z" fill="white"/>
    <path d="M50.303 100.606H60.3636V110.667H50.303V100.606Z" fill="white"/>
    <path d="M80.4849 100.606H90.5455V110.667H80.4849V100.606Z" fill="white"/>
    <path d="M90.5455 100.606H100.606V110.667H90.5455V100.606Z" fill="white"/>
    <path d="M100.606 100.606H110.667V110.667H100.606V100.606Z" fill="white"/>
    <path d="M110.667 100.606H120.727V110.667H110.667V100.606Z" fill="white"/>
    <path d="M120.727 100.606H130.788V110.667H120.727V100.606Z" fill="white"/>
    <path d="M130.788 100.606H140.849V110.667H130.788V100.606Z" fill="white"/>
    <path d="M181.091 100.606H191.152V110.667H181.091V100.606Z" fill="white"/>
    <path d="M201.212 100.606H211.273V110.667H201.212V100.606Z" fill="white"/>
    <path d="M231.394 100.606H241.455V110.667H231.394V100.606Z" fill="white"/>
    <path d="M241.455 100.606H251.515V110.667H241.455V100.606Z" fill="white"/>
    <path d="M261.576 100.606H271.636V110.667H261.576V100.606Z" fill="white"/>
    <path d="M20.1212 110.667H30.1818V120.727H20.1212V110.667Z" fill="white"/>
    <path d="M30.1818 110.667H40.2424V120.727H30.1818V110.667Z" fill="white"/>
    <path d="M60.3636 110.667H70.4243V120.727H60.3636V110.667Z" fill="white"/>
    <path d="M70.4243 110.667H80.4849V120.727H70.4243V110.667Z" fill="white"/>
    <path d="M90.5455 110.667H100.606V120.727H90.5455V110.667Z" fill="white"/>
    <path d="M140.849 110.667H150.909V120.727H140.849V110.667Z" fill="white"/>
    <path d="M191.152 110.667H201.212V120.727H191.152V110.667Z" fill="white"/>
    <path d="M201.212 110.667H211.273V120.727H201.212V110.667Z" fill="white"/>
    <path d="M211.273 110.667H221.333V120.727H211.273V110.667Z" fill="white"/>
    <path d="M241.455 110.667H251.515V120.727H241.455V110.667Z" fill="white"/>
    <path d="M251.515 110.667H261.576V120.727H251.515V110.667Z" fill="white"/>
    <path d="M261.576 110.667H271.636V120.727H261.576V110.667Z" fill="white"/>
    <path d="M271.636 110.667H281.697V120.727H271.636V110.667Z" fill="white"/>
    <path d="M301.818 110.667H311.879V120.727H301.818V110.667Z" fill="white"/>
    <path d="M30.1818 120.727H40.2424V130.788H30.1818V120.727Z" fill="white"/>
    <path d="M40.2424 120.727H50.303V130.788H40.2424V120.727Z" fill="white"/>
    <path d="M50.303 120.727H60.3636V130.788H50.303V120.727Z" fill="white"/>
    <path d="M70.4243 120.727H80.4849V130.788H70.4243V120.727Z" fill="white"/>
    <path d="M80.4849 120.727H90.5455V130.788H80.4849V120.727Z" fill="white"/>
    <path d="M90.5455 120.727H100.606V130.788H90.5455V120.727Z" fill="white"/>
    <path d="M110.667 120.727H120.727V130.788H110.667V120.727Z" fill="white"/>
    <path d="M241.455 120.727H251.515V130.788H241.455V120.727Z" fill="white"/>
    <path d="M251.515 120.727H261.576V130.788H251.515V120.727Z" fill="white"/>
    <path d="M261.576 120.727H271.636V130.788H261.576V120.727Z" fill="white"/>
    <path d="M271.636 120.727H281.697V130.788H271.636V120.727Z" fill="white"/>
    <path d="M281.697 120.727H291.758V130.788H281.697V120.727Z" fill="white"/>
    <path d="M291.758 120.727H301.818V130.788H291.758V120.727Z" fill="white"/>
    <path d="M40.2424 130.788H50.303V140.848H40.2424V130.788Z" fill="white"/>
    <path d="M50.303 130.788H60.3636V140.848H50.303V130.788Z" fill="white"/>
    <path d="M60.3636 130.788H70.4243V140.848H60.3636V130.788Z" fill="white"/>
    <path d="M70.4243 130.788H80.4849V140.848H70.4243V130.788Z" fill="white"/>
    <path d="M100.606 130.788H110.667V140.848H100.606V130.788Z" fill="white"/>
    <path d="M110.667 130.788H120.727V140.848H110.667V130.788Z" fill="white"/>
    <path d="M221.333 130.788H231.394V140.848H221.333V130.788Z" fill="white"/>
    <path d="M251.515 130.788H261.576V140.848H251.515V130.788Z" fill="white"/>
    <path d="M261.576 130.788H271.636V140.848H261.576V130.788Z" fill="white"/>
    <path d="M271.636 130.788H281.697V140.848H271.636V130.788Z" fill="white"/>
    <path d="M301.818 130.788H311.879V140.848H301.818V130.788Z" fill="white"/>
    <path d="M20.1212 140.848H30.1818V150.909H20.1212V140.848Z" fill="white"/>
    <path d="M30.1818 140.848H40.2424V150.909H30.1818V140.848Z" fill="white"/>
    <path d="M50.303 140.848H60.3636V150.909H50.303V140.848Z" fill="white"/>
    <path d="M80.4849 140.848H90.5455V150.909H80.4849V140.848Z" fill="white"/>
    <path d="M90.5455 140.848H100.606V150.909H90.5455V140.848Z" fill="white"/>
    <path d="M211.273 140.848H221.333V150.909H211.273V140.848Z" fill="white"/>
    <path d="M231.394 140.848H241.455V150.909H231.394V140.848Z" fill="white"/>
    <path d="M251.515 140.848H261.576V150.909H251.515V140.848Z" fill="white"/>
    <path d="M281.697 140.848H291.758V150.909H281.697V140.848Z" fill="white"/>
    <path d="M291.758 140.848H301.818V150.909H291.758V140.848Z" fill="white"/>
    <path d="M301.818 140.848H311.879V150.909H301.818V140.848Z" fill="white"/>
    <path d="M30.1818 150.909H40.2424V160.97H30.1818V150.909Z" fill="white"/>
    <path d="M40.2424 150.909H50.303V160.97H40.2424V150.909Z" fill="white"/>
    <path d="M50.303 150.909H60.3636V160.97H50.303V150.909Z" fill="white"/>
    <path d="M90.5455 150.909H100.606V160.97H90.5455V150.909Z" fill="white"/>
    <path d="M110.667 150.909H120.727V160.97H110.667V150.909Z" fill="white"/>
    <path d="M211.273 150.909H221.333V160.97H211.273V150.909Z" fill="white"/>
    <path d="M241.455 150.909H251.515V160.97H241.455V150.909Z" fill="white"/>
    <path d="M251.515 150.909H261.576V160.97H251.515V150.909Z" fill="white"/>
    <path d="M271.636 150.909H281.697V160.97H271.636V150.909Z" fill="white"/>
    <path d="M281.697 150.909H291.758V160.97H281.697V150.909Z" fill="white"/>
    <path d="M301.818 150.909H311.879V160.97H301.818V150.909Z" fill="white"/>
    <path d="M20.1212 160.97H30.1818V171.03H20.1212V160.97Z" fill="white"/>
    <path d="M40.2424 160.97H50.303V171.03H40.2424V160.97Z" fill="white"/>
    <path d="M50.303 160.97H60.3636V171.03H50.303V160.97Z" fill="white"/>
    <path d="M80.4849 160.97H90.5455V171.03H80.4849V160.97Z" fill="white"/>
    <path d="M211.273 160.97H221.333V171.03H211.273V160.97Z" fill="white"/>
    <path d="M221.333 160.97H231.394V171.03H221.333V160.97Z" fill="white"/>
    <path d="M231.394 160.97H241.455V171.03H231.394V160.97Z" fill="white"/>
    <path d="M241.455 160.97H251.515V171.03H241.455V160.97Z" fill="white"/>
    <path d="M251.515 160.97H261.576V171.03H251.515V160.97Z" fill="white"/>
    <path d="M261.576 160.97H271.636V171.03H261.576V160.97Z" fill="white"/>
    <path d="M271.636 160.97H281.697V171.03H271.636V160.97Z" fill="white"/>
    <path d="M291.758 160.97H301.818V171.03H291.758V160.97Z" fill="white"/>
    <path d="M301.818 160.97H311.879V171.03H301.818V160.97Z" fill="white"/>
    <path d="M30.1818 171.03H40.2424V181.091H30.1818V171.03Z" fill="white"/>
    <path d="M40.2424 171.03H50.303V181.091H40.2424V171.03Z" fill="white"/>
    <path d="M50.303 171.03H60.3636V181.091H50.303V171.03Z" fill="white"/>
    <path d="M70.4243 171.03H80.4849V181.091H70.4243V171.03Z" fill="white"/>
    <path d="M90.5455 171.03H100.606V181.091H90.5455V171.03Z" fill="white"/>
    <path d="M211.273 171.03H221.333V181.091H211.273V171.03Z" fill="white"/>
    <path d="M221.333 171.03H231.394V181.091H221.333V171.03Z" fill="white"/>
    <path d="M261.576 171.03H271.636V181.091H261.576V171.03Z" fill="white"/>
    <path d="M271.636 171.03H281.697V181.091H271.636V171.03Z" fill="white"/>
    <path d="M291.758 171.03H301.818V181.091H291.758V171.03Z" fill="white"/>
    <path d="M301.818 171.03H311.879V181.091H301.818V171.03Z" fill="white"/>
    <path d="M20.1212 181.091H30.1818V191.152H20.1212V181.091Z" fill="white"/>
    <path d="M30.1818 181.091H40.2424V191.152H30.1818V181.091Z" fill="white"/>
    <path d="M50.303 181.091H60.3636V191.152H50.303V181.091Z" fill="white"/>
    <path d="M80.4849 181.091H90.5455V191.152H80.4849V181.091Z" fill="white"/>
    <path d="M211.273 181.091H221.333V191.152H211.273V181.091Z" fill="white"/>
    <path d="M221.333 181.091H231.394V191.152H221.333V181.091Z" fill="white"/>
    <path d="M251.515 181.091H261.576V191.152H251.515V181.091Z" fill="white"/>
    <path d="M261.576 181.091H271.636V191.152H261.576V181.091Z" fill="white"/>
    <path d="M271.636 181.091H281.697V191.152H271.636V181.091Z" fill="white"/>
    <path d="M291.758 181.091H301.818V191.152H291.758V181.091Z" fill="white"/>
    <path d="M301.818 181.091H311.879V191.152H301.818V181.091Z" fill="white"/>
    <path d="M30.1818 191.152H40.2424V201.212H30.1818V191.152Z" fill="white"/>
    <path d="M40.2424 191.152H50.303V201.212H40.2424V191.152Z" fill="white"/>
    <path d="M60.3636 191.152H70.4243V201.212H60.3636V191.152Z" fill="white"/>
    <path d="M100.606 191.152H110.667V201.212H100.606V191.152Z" fill="white"/>
    <path d="M110.667 191.152H120.727V201.212H110.667V191.152Z" fill="white"/>
    <path d="M221.333 191.152H231.394V201.212H221.333V191.152Z" fill="white"/>
    <path d="M251.515 191.152H261.576V201.212H251.515V191.152Z" fill="white"/>
    <path d="M281.697 191.152H291.758V201.212H281.697V191.152Z" fill="white"/>
    <path d="M20.1212 201.212H30.1818V211.273H20.1212V201.212Z" fill="white"/>
    <path d="M60.3636 201.212H70.4243V211.273H60.3636V201.212Z" fill="white"/>
    <path d="M80.4849 201.212H90.5455V211.273H80.4849V201.212Z" fill="white"/>
    <path d="M100.606 201.212H110.667V211.273H100.606V201.212Z" fill="white"/>
    <path d="M110.667 201.212H120.727V211.273H110.667V201.212Z" fill="white"/>
    <path d="M241.455 201.212H251.515V211.273H241.455V201.212Z" fill="white"/>
    <path d="M261.576 201.212H271.636V211.273H261.576V201.212Z" fill="white"/>
    <path d="M281.697 201.212H291.758V211.273H281.697V201.212Z" fill="white"/>
    <path d="M40.2424 211.273H50.303V221.333H40.2424V211.273Z" fill="white"/>
    <path d="M60.3636 211.273H70.4243V221.333H60.3636V211.273Z" fill="white"/>
    <path d="M70.4243 211.273H80.4849V221.333H70.4243V211.273Z" fill="white"/>
    <path d="M100.606 211.273H110.667V221.333H100.606V211.273Z" fill="white"/>
    <path d="M140.849 211.273H150.909V221.333H140.849V211.273Z" fill="white"/>
    <path d="M150.909 211.273H160.97V221.333H150.909V211.273Z" fill="white"/>
    <path d="M160.97 211.273H171.03V221.333H160.97V211.273Z" fill="white"/>
    <path d="M171.03 211.273H181.091V221.333H171.03V211.273Z" fill="white"/>
    <path d="M191.152 211.273H201.212V221.333H191.152V211.273Z" fill="white"/>
    <path d="M211.273 211.273H221.333V221.333H211.273V211.273Z" fill="white"/>
    <path d="M231.394 211.273H241.455V221.333H231.394V211.273Z" fill="white"/>
    <path d="M241.455 211.273H251.515V221.333H241.455V211.273Z" fill="white"/>
    <path d="M271.636 211.273H281.697V221.333H271.636V211.273Z" fill="white"/>
    <path d="M281.697 211.273H291.758V221.333H281.697V211.273Z" fill="white"/>
    <path d="M291.758 211.273H301.818V221.333H291.758V211.273Z" fill="white"/>
    <path d="M301.818 211.273H311.879V221.333H301.818V211.273Z" fill="white"/>
    <path d="M30.1818 221.333H40.2424V231.394H30.1818V221.333Z" fill="white"/>
    <path d="M50.303 221.333H60.3636V231.394H50.303V221.333Z" fill="white"/>
    <path d="M60.3636 221.333H70.4243V231.394H60.3636V221.333Z" fill="white"/>
    <path d="M80.4849 221.333H90.5455V231.394H80.4849V221.333Z" fill="white"/>
    <path d="M120.727 221.333H130.788V231.394H120.727V221.333Z" fill="white"/>
    <path d="M130.788 221.333H140.849V231.394H130.788V221.333Z" fill="white"/>
    <path d="M150.909 221.333H160.97V231.394H150.909V221.333Z" fill="white"/>
    <path d="M181.091 221.333H191.152V231.394H181.091V221.333Z" fill="white"/>
    <path d="M191.152 221.333H201.212V231.394H191.152V221.333Z" fill="white"/>
    <path d="M201.212 221.333H211.273V231.394H201.212V221.333Z" fill="white"/>
    <path d="M221.333 221.333H231.394V231.394H221.333V221.333Z" fill="white"/>
    <path d="M231.394 221.333H241.455V231.394H231.394V221.333Z" fill="white"/>
    <path d="M241.455 221.333H251.515V231.394H241.455V221.333Z" fill="white"/>
    <path d="M251.515 221.333H261.576V231.394H251.515V221.333Z" fill="white"/>
    <path d="M261.576 221.333H271.636V231.394H261.576V221.333Z" fill="white"/>
    <path d="M271.636 221.333H281.697V231.394H271.636V221.333Z" fill="white"/>
    <path d="M281.697 221.333H291.758V231.394H281.697V221.333Z" fill="white"/>
    <path d="M291.758 221.333H301.818V231.394H291.758V221.333Z" fill="white"/>
    <path d="M301.818 221.333H311.879V231.394H301.818V221.333Z" fill="white"/>
    <path d="M100.606 231.394H110.667V241.455H100.606V231.394Z" fill="white"/>
    <path d="M110.667 231.394H120.727V241.455H110.667V231.394Z" fill="white"/>
    <path d="M171.03 231.394H181.091V241.455H171.03V231.394Z" fill="white"/>
    <path d="M191.152 231.394H201.212V241.455H191.152V231.394Z" fill="white"/>
    <path d="M201.212 231.394H211.273V241.455H201.212V231.394Z" fill="white"/>
    <path d="M221.333 231.394H231.394V241.455H221.333V231.394Z" fill="white"/>
    <path d="M261.576 231.394H271.636V241.455H261.576V231.394Z" fill="white"/>
    <path d="M271.636 231.394H281.697V241.455H271.636V231.394Z" fill="white"/>
    <path d="M291.758 231.394H301.818V241.455H291.758V231.394Z" fill="white"/>
    <path d="M301.818 231.394H311.879V241.455H301.818V231.394Z" fill="white"/>
    <path d="M20.1212 241.455H30.1818V251.515H20.1212V241.455Z" fill="white"/>
    <path d="M30.1818 241.455H40.2424V251.515H30.1818V241.455Z" fill="white"/>
    <path d="M40.2424 241.455H50.303V251.515H40.2424V241.455Z" fill="white"/>
    <path d="M50.303 241.455H60.3636V251.515H50.303V241.455Z" fill="white"/>
    <path d="M60.3636 241.455H70.4243V251.515H60.3636V241.455Z" fill="white"/>
    <path d="M70.4243 241.455H80.4849V251.515H70.4243V241.455Z" fill="white"/>
    <path d="M80.4849 241.455H90.5455V251.515H80.4849V241.455Z" fill="white"/>
    <path d="M100.606 241.455H110.667V251.515H100.606V241.455Z" fill="white"/>
    <path d="M120.727 241.455H130.788V251.515H120.727V241.455Z" fill="white"/>
    <path d="M150.909 241.455H160.97V251.515H150.909V241.455Z" fill="white"/>
    <path d="M171.03 241.455H181.091V251.515H171.03V241.455Z" fill="white"/>
    <path d="M181.091 241.455H191.152V251.515H181.091V241.455Z" fill="white"/>
    <path d="M201.212 241.455H211.273V251.515H201.212V241.455Z" fill="white"/>
    <path d="M211.273 241.455H221.333V251.515H211.273V241.455Z" fill="white"/>
    <path d="M221.333 241.455H231.394V251.515H221.333V241.455Z" fill="white"/>
    <path d="M241.455 241.455H251.515V251.515H241.455V241.455Z" fill="white"/>
    <path d="M261.576 241.455H271.636V251.515H261.576V241.455Z" fill="white"/>
    <path d="M281.697 241.455H291.758V251.515H281.697V241.455Z" fill="white"/>
    <path d="M291.758 241.455H301.818V251.515H291.758V241.455Z" fill="white"/>
    <path d="M20.1212 251.515H30.1818V261.576H20.1212V251.515Z" fill="white"/>
    <path d="M80.4849 251.515H90.5455V261.576H80.4849V251.515Z" fill="white"/>
    <path d="M130.788 251.515H140.849V261.576H130.788V251.515Z" fill="white"/>
    <path d="M160.97 251.515H171.03V261.576H160.97V251.515Z" fill="white"/>
    <path d="M171.03 251.515H181.091V261.576H171.03V251.515Z" fill="white"/>
    <path d="M181.091 251.515H191.152V261.576H181.091V251.515Z" fill="white"/>
    <path d="M191.152 251.515H201.212V261.576H191.152V251.515Z" fill="white"/>
    <path d="M221.333 251.515H231.394V261.576H221.333V251.515Z" fill="white"/>
    <path d="M261.576 251.515H271.636V261.576H261.576V251.515Z" fill="white"/>
    <path d="M291.758 251.515H301.818V261.576H291.758V251.515Z" fill="white"/>
    <path d="M301.818 251.515H311.879V261.576H301.818V251.515Z" fill="white"/>
    <path d="M20.1212 261.576H30.1818V271.636H20.1212V261.576Z" fill="white"/>
    <path d="M40.2424 261.576H50.303V271.636H40.2424V261.576Z" fill="white"/>
    <path d="M50.303 261.576H60.3636V271.636H50.303V261.576Z" fill="white"/>
    <path d="M60.3636 261.576H70.4243V271.636H60.3636V261.576Z" fill="white"/>
    <path d="M80.4849 261.576H90.5455V271.636H80.4849V261.576Z" fill="white"/>
    <path d="M110.667 261.576H120.727V271.636H110.667V261.576Z" fill="white"/>
    <path d="M140.849 261.576H150.909V271.636H140.849V261.576Z" fill="white"/>
    <path d="M150.909 261.576H160.97V271.636H150.909V261.576Z" fill="white"/>
    <path d="M160.97 261.576H171.03V271.636H160.97V261.576Z" fill="white"/>
    <path d="M181.091 261.576H191.152V271.636H181.091V261.576Z" fill="white"/>
    <path d="M191.152 261.576H201.212V271.636H191.152V261.576Z" fill="white"/>
    <path d="M201.212 261.576H211.273V271.636H201.212V261.576Z" fill="white"/>
    <path d="M221.333 261.576H231.394V271.636H221.333V261.576Z" fill="white"/>
    <path d="M231.394 261.576H241.455V271.636H231.394V261.576Z" fill="white"/>
    <path d="M241.455 261.576H251.515V271.636H241.455V261.576Z" fill="white"/>
    <path d="M251.515 261.576H261.576V271.636H251.515V261.576Z" fill="white"/>
    <path d="M261.576 261.576H271.636V271.636H261.576V261.576Z" fill="white"/>
    <path d="M271.636 261.576H281.697V271.636H271.636V261.576Z" fill="white"/>
    <path d="M281.697 261.576H291.758V271.636H281.697V261.576Z" fill="white"/>
    <path d="M291.758 261.576H301.818V271.636H291.758V261.576Z" fill="white"/>
    <path d="M301.818 261.576H311.879V271.636H301.818V261.576Z" fill="white"/>
    <path d="M20.1212 271.636H30.1818V281.697H20.1212V271.636Z" fill="white"/>
    <path d="M40.2424 271.636H50.303V281.697H40.2424V271.636Z" fill="white"/>
    <path d="M50.303 271.636H60.3636V281.697H50.303V271.636Z" fill="white"/>
    <path d="M60.3636 271.636H70.4243V281.697H60.3636V271.636Z" fill="white"/>
    <path d="M80.4849 271.636H90.5455V281.697H80.4849V271.636Z" fill="white"/>
    <path d="M100.606 271.636H110.667V281.697H100.606V271.636Z" fill="white"/>
    <path d="M110.667 271.636H120.727V281.697H110.667V271.636Z" fill="white"/>
    <path d="M120.727 271.636H130.788V281.697H120.727V271.636Z" fill="white"/>
    <path d="M140.849 271.636H150.909V281.697H140.849V271.636Z" fill="white"/>
    <path d="M150.909 271.636H160.97V281.697H150.909V271.636Z" fill="white"/>
    <path d="M160.97 271.636H171.03V281.697H160.97V271.636Z" fill="white"/>
    <path d="M181.091 271.636H191.152V281.697H181.091V271.636Z" fill="white"/>
    <path d="M191.152 271.636H201.212V281.697H191.152V271.636Z" fill="white"/>
    <path d="M211.273 271.636H221.333V281.697H211.273V271.636Z" fill="white"/>
    <path d="M261.576 271.636H271.636V281.697H261.576V271.636Z" fill="white"/>
    <path d="M271.636 271.636H281.697V281.697H271.636V271.636Z" fill="white"/>
    <path d="M291.758 271.636H301.818V281.697H291.758V271.636Z" fill="white"/>
    <path d="M20.1212 281.697H30.1818V291.758H20.1212V281.697Z" fill="white"/>
    <path d="M40.2424 281.697H50.303V291.758H40.2424V281.697Z" fill="white"/>
    <path d="M50.303 281.697H60.3636V291.758H50.303V281.697Z" fill="white"/>
    <path d="M60.3636 281.697H70.4243V291.758H60.3636V281.697Z" fill="white"/>
    <path d="M80.4849 281.697H90.5455V291.758H80.4849V281.697Z" fill="white"/>
    <path d="M100.606 281.697H110.667V291.758H100.606V281.697Z" fill="white"/>
    <path d="M110.667 281.697H120.727V291.758H110.667V281.697Z" fill="white"/>
    <path d="M120.727 281.697H130.788V291.758H120.727V281.697Z" fill="white"/>
    <path d="M160.97 281.697H171.03V291.758H160.97V281.697Z" fill="white"/>
    <path d="M181.091 281.697H191.152V291.758H181.091V281.697Z" fill="white"/>
    <path d="M201.212 281.697H211.273V291.758H201.212V281.697Z" fill="white"/>
    <path d="M221.333 281.697H231.394V291.758H221.333V281.697Z" fill="white"/>
    <path d="M251.515 281.697H261.576V291.758H251.515V281.697Z" fill="white"/>
    <path d="M271.636 281.697H281.697V291.758H271.636V281.697Z" fill="white"/>
    <path d="M281.697 281.697H291.758V291.758H281.697V281.697Z" fill="white"/>
    <path d="M301.818 281.697H311.879V291.758H301.818V281.697Z" fill="white"/>
    <path d="M20.1212 291.758H30.1818V301.818H20.1212V291.758Z" fill="white"/>
    <path d="M80.4849 291.758H90.5455V301.818H80.4849V291.758Z" fill="white"/>
    <path d="M110.667 291.758H120.727V301.818H110.667V291.758Z" fill="white"/>
    <path d="M130.788 291.758H140.849V301.818H130.788V291.758Z" fill="white"/>
    <path d="M150.909 291.758H160.97V301.818H150.909V291.758Z" fill="white"/>
    <path d="M160.97 291.758H171.03V301.818H160.97V291.758Z" fill="white"/>
    <path d="M171.03 291.758H181.091V301.818H171.03V291.758Z" fill="white"/>
    <path d="M201.212 291.758H211.273V301.818H201.212V291.758Z" fill="white"/>
    <path d="M221.333 291.758H231.394V301.818H221.333V291.758Z" fill="white"/>
    <path d="M241.455 291.758H251.515V301.818H241.455V291.758Z" fill="white"/>
    <path d="M261.576 291.758H271.636V301.818H261.576V291.758Z" fill="white"/>
    <path d="M271.636 291.758H281.697V301.818H271.636V291.758Z" fill="white"/>
    <path d="M291.758 291.758H301.818V301.818H291.758V291.758Z" fill="white"/>
    <path d="M20.1212 301.818H30.1818V311.879H20.1212V301.818Z" fill="white"/>
    <path d="M30.1818 301.818H40.2424V311.879H30.1818V301.818Z" fill="white"/>
    <path d="M40.2424 301.818H50.303V311.879H40.2424V301.818Z" fill="white"/>
    <path d="M50.303 301.818H60.3636V311.879H50.303V301.818Z" fill="white"/>
    <path d="M60.3636 301.818H70.4243V311.879H60.3636V301.818Z" fill="white"/>
    <path d="M70.4243 301.818H80.4849V311.879H70.4243V301.818Z" fill="white"/>
    <path d="M80.4849 301.818H90.5455V311.879H80.4849V301.818Z" fill="white"/>
    <path d="M120.727 301.818H130.788V311.879H120.727V301.818Z" fill="white"/>
    <path d="M130.788 301.818H140.849V311.879H130.788V301.818Z" fill="white"/>
    <path d="M140.849 301.818H150.909V311.879H140.849V301.818Z" fill="white"/>
    <path d="M150.909 301.818H160.97V311.879H150.909V301.818Z" fill="white"/>
    <path d="M160.97 301.818H171.03V311.879H160.97V301.818Z" fill="white"/>
    <path d="M171.03 301.818H181.091V311.879H171.03V301.818Z" fill="white"/>
    <path d="M181.091 301.818H191.152V311.879H181.091V301.818Z" fill="white"/>
    <path d="M201.212 301.818H211.273V311.879H201.212V301.818Z" fill="white"/>
    <path d="M211.273 301.818H221.333V311.879H211.273V301.818Z" fill="white"/>
    <path d="M221.333 301.818H231.394V311.879H221.333V301.818Z" fill="white"/>
    <path d="M241.455 301.818H251.515V311.879H241.455V301.818Z" fill="white"/>
    <path d="M251.515 301.818H261.576V311.879H251.515V301.818Z" fill="white"/>
    <path d="M271.636 301.818H281.697V311.879H271.636V301.818Z" fill="white"/>
    <path d="M291.758 301.818H301.818V311.879H291.758V301.818Z" fill="white"/>
    <path d="M30.1818 20.1212H20.1212V30.1818M30.1818 20.1212V30.1818M30.1818 20.1212H40.2424M30.1818 30.1818H20.1212M30.1818 30.1818H40.2424M30.1818 30.1818V40.2424M20.1212 30.1818V40.2424M40.2424 20.1212V30.1818M40.2424 20.1212H50.303M40.2424 30.1818H50.303M50.303 20.1212V30.1818M50.303 20.1212H60.3636M50.303 30.1818H60.3636M60.3636 20.1212V30.1818M60.3636 20.1212H70.4243M60.3636 30.1818H70.4243M70.4243 20.1212V30.1818M70.4243 20.1212H80.4849M70.4243 30.1818H80.4849M80.4849 20.1212V30.1818M80.4849 20.1212H90.5455V30.1818M80.4849 30.1818H90.5455M80.4849 30.1818V40.2424M90.5455 30.1818V40.2424M140.849 30.1818V20.1212H130.788V30.1818M140.849 30.1818H130.788M140.849 30.1818H150.909M140.849 30.1818V40.2424M130.788 30.1818H120.727V40.2424M130.788 30.1818V40.2424H120.727M160.97 20.1212H150.909V30.1818M160.97 20.1212V30.1818M160.97 20.1212H171.03M160.97 30.1818H150.909M160.97 30.1818H171.03M160.97 30.1818V40.2424M150.909 30.1818V40.2424M171.03 20.1212V30.1818M171.03 20.1212H181.091M171.03 30.1818H181.091M181.091 20.1212V30.1818M181.091 20.1212H191.152M181.091 30.1818H191.152M181.091 30.1818V40.2424M191.152 20.1212V30.1818M191.152 20.1212H201.212M191.152 30.1818H201.212M191.152 30.1818V40.2424M201.212 20.1212V30.1818M201.212 20.1212H211.273V30.1818M201.212 30.1818H211.273M201.212 30.1818V40.2424M211.273 30.1818V40.2424H201.212M251.515 20.1212H246.455C243.693 20.1212 241.455 22.3598 241.455 25.1212V30.1818M251.515 20.1212V30.1818M251.515 20.1212H261.576M251.515 30.1818H241.455M251.515 30.1818H261.576M251.515 30.1818V40.2424M241.455 30.1818V40.2424M261.576 20.1212V30.1818M261.576 20.1212H271.636M261.576 30.1818H271.636M271.636 20.1212V30.1818M271.636 20.1212H281.697M271.636 30.1818H281.697M281.697 20.1212V30.1818M281.697 20.1212H291.758M281.697 30.1818H291.758M291.758 20.1212V30.1818M291.758 20.1212H301.818M291.758 30.1818H301.818M301.818 20.1212V30.1818M301.818 20.1212H306.879C309.64 20.1212 311.879 22.3598 311.879 25.1212V30.1818M301.818 30.1818H311.879M301.818 30.1818V40.2424M311.879 30.1818V40.2424M30.1818 40.2424H20.1212M30.1818 40.2424V50.303M20.1212 40.2424V50.303M90.5455 40.2424H80.4849M90.5455 40.2424V50.303M80.4849 40.2424V50.303M120.727 40.2424H110.667V50.303M120.727 40.2424V50.303M150.909 40.2424H140.849M150.909 40.2424H160.97M150.909 40.2424V50.303M140.849 40.2424V50.303H150.909M160.97 40.2424V50.303M191.152 40.2424H181.091M191.152 40.2424H201.212M191.152 40.2424V50.303M181.091 40.2424V50.303M251.515 40.2424H241.455M251.515 40.2424V50.303M241.455 40.2424V50.303M311.879 40.2424H301.818M311.879 40.2424V50.303M301.818 40.2424V50.303M30.1818 50.303H20.1212M30.1818 50.303V60.3636M20.1212 50.303V60.3636M50.303 40.2424H40.2424V50.303M50.303 40.2424V50.303M50.303 40.2424H60.3636M50.303 50.303H40.2424M50.303 50.303H60.3636M50.303 50.303V60.3636M40.2424 50.303V60.3636M60.3636 40.2424V50.303M60.3636 40.2424H70.4243V50.303M60.3636 50.303H70.4243M60.3636 50.303V60.3636M70.4243 50.303V60.3636M90.5455 50.303H80.4849M90.5455 50.303V60.3636M80.4849 50.303V60.3636M120.727 50.303H110.667M120.727 50.303V60.3636M120.727 50.303H130.788V60.3636M110.667 50.303V60.3636M150.909 50.303H160.97M160.97 50.303H171.03V60.3636M160.97 50.303V60.3636M191.152 50.303H181.091M191.152 50.303V60.3636M191.152 50.303H201.212V60.3636H191.152M181.091 50.303V60.3636M221.333 50.303H231.394V40.2424H221.333V50.303ZM221.333 50.303H211.273V60.3636M221.333 50.303V60.3636M251.515 50.303H241.455M251.515 50.303V60.3636M241.455 50.303V60.3636M271.636 40.2424H261.576V50.303M271.636 40.2424V50.303M271.636 40.2424H281.697M271.636 50.303H261.576M271.636 50.303H281.697M271.636 50.303V60.3636M261.576 50.303V60.3636M281.697 40.2424V50.303M281.697 40.2424H291.758V50.303M281.697 50.303H291.758M281.697 50.303V60.3636M291.758 50.303V60.3636M311.879 50.303H301.818M311.879 50.303V60.3636M301.818 50.303V60.3636M30.1818 60.3636H20.1212M30.1818 60.3636V70.4242M20.1212 60.3636V70.4242M50.303 60.3636H40.2424M50.303 60.3636H60.3636M50.303 60.3636V70.4242M40.2424 60.3636V70.4242H50.303M60.3636 60.3636H70.4243M60.3636 60.3636V70.4242M70.4243 60.3636V70.4242H60.3636M90.5455 60.3636H80.4849M90.5455 60.3636V70.4242M80.4849 60.3636V70.4242M120.727 60.3636H110.667M120.727 60.3636H130.788M120.727 60.3636V70.4242M110.667 60.3636H100.606V70.4242H110.667M110.667 60.3636V70.4242M130.788 60.3636V70.4242M171.03 60.3636H160.97M171.03 60.3636H181.091M171.03 60.3636V70.4242M160.97 60.3636H150.909M160.97 60.3636V70.4242M191.152 60.3636H181.091M181.091 60.3636V70.4242H171.03M221.333 60.3636H211.273M221.333 60.3636V70.4242M211.273 60.3636V70.4242M251.515 60.3636H241.455M251.515 60.3636V70.4242M241.455 60.3636V70.4242M271.636 60.3636H261.576M271.636 60.3636H281.697M271.636 60.3636V70.4242M261.576 60.3636V70.4242H271.636M281.697 60.3636H291.758M281.697 60.3636V70.4242M291.758 60.3636V70.4242H281.697M311.879 60.3636H301.818M311.879 60.3636V70.4242M301.818 60.3636V70.4242M30.1818 70.4242H20.1212M30.1818 70.4242V80.4849M20.1212 70.4242V80.4849M50.303 70.4242H60.3636M90.5455 70.4242H80.4849M90.5455 70.4242V80.4849M80.4849 70.4242V80.4849M110.667 70.4242H120.727M110.667 70.4242V80.4849M130.788 70.4242H120.727M130.788 70.4242H140.849M130.788 70.4242V80.4849M120.727 70.4242V80.4849M150.909 60.3636H140.849V70.4242M150.909 60.3636V70.4242M150.909 70.4242H140.849M150.909 70.4242H160.97M150.909 70.4242V80.4849M140.849 70.4242V80.4849M160.97 70.4242V80.4849M160.97 70.4242H171.03M171.03 70.4242V80.4849M221.333 70.4242H211.273M221.333 70.4242V80.4849M211.273 70.4242H201.212M211.273 70.4242V80.4849M251.515 70.4242H241.455M251.515 70.4242V80.4849M241.455 70.4242V80.4849M271.636 70.4242H281.697M311.879 70.4242H301.818M311.879 70.4242V80.4849M301.818 70.4242V80.4849M30.1818 80.4849H20.1212M30.1818 80.4849V90.5455M30.1818 80.4849H40.2424M20.1212 80.4849V90.5455H30.1818M90.5455 80.4849H80.4849M90.5455 80.4849V90.5455H80.4849M80.4849 80.4849H70.4243M80.4849 80.4849V90.5455M120.727 80.4849H110.667M120.727 80.4849H130.788M120.727 80.4849V90.5455M110.667 80.4849H100.606V90.5455M110.667 80.4849V90.5455M140.849 80.4849H130.788M140.849 80.4849H150.909M140.849 80.4849V90.5455H150.909V80.4849M130.788 80.4849V90.5455M150.909 80.4849H160.97M160.97 80.4849H171.03M160.97 80.4849V90.5455M171.03 80.4849V90.5455M201.212 70.4242H191.152V80.4849M201.212 70.4242V80.4849M201.212 80.4849H191.152M201.212 80.4849H211.273M201.212 80.4849V90.5455H211.273M191.152 80.4849H181.091V90.5455M191.152 80.4849V90.5455M211.273 80.4849H221.333M211.273 80.4849V90.5455M221.333 80.4849H231.394V90.5455H221.333M221.333 80.4849V90.5455M251.515 80.4849H241.455M251.515 80.4849V90.5455M251.515 80.4849H261.576M241.455 80.4849V85.5455C241.455 88.3069 243.693 90.5455 246.455 90.5455H251.515M311.879 80.4849H301.818M311.879 80.4849V85.5455C311.879 88.3069 309.64 90.5455 306.879 90.5455H301.818M301.818 80.4849H291.758M301.818 80.4849V90.5455M30.1818 90.5455H40.2424M40.2424 80.4849V90.5455M40.2424 80.4849H50.303M40.2424 90.5455H50.303M50.303 80.4849V90.5455M50.303 80.4849H60.3636M50.303 90.5455H60.3636M60.3636 80.4849V90.5455M60.3636 80.4849H70.4243M60.3636 90.5455H70.4243M70.4243 80.4849V90.5455M70.4243 90.5455H80.4849M110.667 90.5455H100.606M110.667 90.5455V100.606M110.667 90.5455H120.727M100.606 90.5455V100.606M130.788 90.5455H120.727M130.788 90.5455V100.606M120.727 90.5455V100.606M171.03 90.5455H160.97M171.03 90.5455V100.606M171.03 90.5455H181.091M160.97 90.5455V100.606H171.03M191.152 90.5455H181.091M191.152 90.5455V100.606M181.091 90.5455V100.606M211.273 90.5455H221.333M211.273 90.5455V100.606M221.333 90.5455V100.606H211.273M251.515 90.5455H261.576M261.576 80.4849V90.5455M261.576 80.4849H271.636M261.576 90.5455H271.636M271.636 80.4849V90.5455M271.636 80.4849H281.697M271.636 90.5455H281.697M281.697 80.4849V90.5455M281.697 80.4849H291.758M281.697 90.5455H291.758M291.758 80.4849V90.5455M291.758 90.5455H301.818M110.667 100.606H100.606M110.667 100.606H120.727M110.667 100.606V110.667M100.606 100.606H90.5455M100.606 100.606V110.667M120.727 100.606H130.788M120.727 100.606V110.667M130.788 100.606V110.667M130.788 100.606H140.849V110.667M171.03 100.606H181.091M181.091 100.606H191.152M181.091 100.606V110.667H191.152M191.152 100.606V110.667M211.273 100.606H201.212V110.667M211.273 100.606V110.667M50.303 100.606H40.2424V110.667M50.303 100.606V110.667M50.303 100.606H60.3636V110.667M50.303 110.667H40.2424M50.303 110.667H60.3636M40.2424 110.667H30.1818M40.2424 110.667V120.727M60.3636 110.667H70.4243M60.3636 110.667V120.727M90.5455 100.606H80.4849V110.667M90.5455 100.606V110.667M90.5455 110.667H80.4849M90.5455 110.667H100.606M90.5455 110.667V120.727M80.4849 110.667H70.4243M80.4849 110.667V120.727M100.606 110.667H110.667M100.606 110.667V120.727M110.667 110.667H120.727M120.727 110.667H130.788M130.788 110.667H140.849M140.849 110.667H150.909V120.727H140.849V110.667ZM191.152 110.667H201.212M191.152 110.667V120.727H201.212M211.273 110.667H201.212M211.273 110.667V120.727M211.273 110.667H221.333V120.727H211.273M201.212 110.667V120.727M241.455 100.606H231.394V110.667H241.455M241.455 100.606V110.667M241.455 100.606H251.515V110.667M241.455 110.667H251.515M241.455 110.667V120.727M251.515 110.667V120.727M251.515 110.667H261.576M271.636 110.667V100.606H261.576V110.667M271.636 110.667H261.576M271.636 110.667V120.727M271.636 110.667H281.697V120.727M261.576 110.667V120.727M30.1818 110.667H20.1212V120.727H30.1818M30.1818 110.667V120.727M30.1818 120.727H40.2424M30.1818 120.727V130.788H40.2424M40.2424 120.727V130.788M40.2424 120.727H50.303M70.4243 110.667V120.727M70.4243 120.727H60.3636M70.4243 120.727H80.4849M70.4243 120.727V130.788M60.3636 120.727H50.303M60.3636 120.727V130.788M80.4849 120.727V130.788M80.4849 120.727H90.5455M100.606 120.727H90.5455M100.606 120.727V130.788M90.5455 120.727V130.788M201.212 120.727H211.273M251.515 120.727H241.455M251.515 120.727H261.576M251.515 120.727V130.788M241.455 120.727V130.788H251.515M261.576 120.727H271.636M261.576 120.727V130.788M271.636 120.727H281.697M271.636 120.727V130.788M281.697 120.727V130.788M281.697 120.727H291.758M301.818 120.727H311.879V110.667H301.818V120.727ZM301.818 120.727H291.758M301.818 120.727V130.788M40.2424 130.788H50.303M40.2424 130.788V140.848M50.303 120.727V130.788M50.303 130.788H60.3636M50.303 130.788V140.848M60.3636 130.788V140.848M60.3636 130.788H70.4243M80.4849 130.788H70.4243M80.4849 130.788H90.5455M80.4849 130.788V140.848M70.4243 130.788V140.848M90.5455 130.788H100.606M100.606 130.788H110.667M100.606 130.788V140.848M120.727 130.788V120.727H110.667V130.788M120.727 130.788H110.667M120.727 130.788V140.848H110.667M110.667 130.788V140.848M251.515 130.788H261.576M251.515 130.788V140.848M261.576 130.788H271.636M261.576 130.788V140.848M271.636 130.788H281.697M271.636 130.788V140.848M281.697 130.788H291.758M281.697 130.788V140.848M291.758 120.727V130.788M291.758 130.788H301.818M301.818 130.788H311.879V140.848M301.818 130.788V140.848M50.303 140.848H40.2424M50.303 140.848H60.3636M50.303 140.848V150.909M40.2424 140.848H30.1818M40.2424 140.848V150.909M60.3636 140.848H70.4243M60.3636 140.848V150.909M70.4243 140.848H80.4849M80.4849 140.848H90.5455M80.4849 140.848V150.909H90.5455M110.667 140.848H100.606M100.606 140.848H90.5455M100.606 140.848V150.909M231.394 140.848V130.788H221.333V140.848M231.394 140.848H221.333M231.394 140.848H241.455V150.909M231.394 140.848V150.909H241.455M221.333 140.848H211.273V150.909M221.333 140.848V150.909M261.576 140.848H251.515M261.576 140.848H271.636M261.576 140.848V150.909M251.515 140.848V150.909M271.636 140.848H281.697M281.697 140.848H291.758M281.697 140.848V150.909M311.879 140.848H301.818M311.879 140.848V150.909M301.818 140.848H291.758M301.818 140.848V150.909M30.1818 140.848H20.1212V150.909H30.1818M30.1818 140.848V150.909M30.1818 150.909H40.2424M30.1818 150.909V160.97M40.2424 150.909V160.97M40.2424 150.909H50.303M60.3636 150.909H50.303M60.3636 150.909V160.97M50.303 150.909V160.97M90.5455 140.848V150.909M90.5455 150.909H100.606M90.5455 150.909V160.97M100.606 150.909V160.97H90.5455M221.333 150.909H211.273M221.333 150.909V160.97M211.273 150.909V160.97M241.455 150.909H251.515M241.455 150.909V160.97M261.576 150.909H251.515M261.576 150.909V160.97M251.515 150.909V160.97M291.758 140.848V150.909M291.758 150.909H281.697M291.758 150.909H301.818M291.758 150.909V160.97M281.697 150.909H271.636V160.97M281.697 150.909V160.97M301.818 150.909H311.879M301.818 150.909V160.97M311.879 150.909V160.97M40.2424 160.97H30.1818M40.2424 160.97H50.303M40.2424 160.97V171.03M30.1818 160.97H20.1212V171.03H30.1818M30.1818 160.97V171.03M50.303 160.97H60.3636M50.303 160.97V171.03M60.3636 160.97V171.03M90.5455 160.97H80.4849V171.03M90.5455 160.97V171.03M221.333 160.97H211.273M221.333 160.97V171.03M221.333 160.97H231.394M211.273 160.97V171.03M251.515 160.97H241.455M251.515 160.97H261.576M251.515 160.97V171.03M241.455 160.97H231.394M241.455 160.97V171.03M261.576 160.97V171.03M261.576 160.97H271.636M281.697 160.97H271.636M281.697 160.97H291.758M281.697 160.97V171.03M271.636 160.97V171.03M291.758 160.97H301.818M291.758 160.97V171.03M311.879 160.97H301.818M311.879 160.97V171.03M301.818 160.97V171.03M30.1818 171.03H40.2424M30.1818 171.03V181.091M50.303 171.03H40.2424M50.303 171.03H60.3636M50.303 171.03V181.091M40.2424 171.03V181.091M60.3636 171.03V181.091M90.5455 171.03H80.4849M90.5455 171.03H100.606V181.091H90.5455M90.5455 171.03V181.091M80.4849 171.03H70.4243V181.091H80.4849M80.4849 171.03V181.091M221.333 171.03H211.273M221.333 171.03H231.394M221.333 171.03V181.091M211.273 171.03V181.091M231.394 160.97V171.03M231.394 171.03H241.455M231.394 171.03V181.091M241.455 171.03H251.515M251.515 171.03H261.576M261.576 171.03H271.636M261.576 171.03V181.091M271.636 171.03H281.697M271.636 171.03V181.091M281.697 171.03V181.091M301.818 171.03H291.758M301.818 171.03H311.879M301.818 171.03V181.091M291.758 171.03V181.091M311.879 171.03V181.091M40.2424 181.091H30.1818M40.2424 181.091H50.303M40.2424 181.091V191.152M30.1818 181.091H20.1212V191.152H30.1818M30.1818 181.091V191.152M50.303 181.091H60.3636M50.303 181.091V191.152M60.3636 181.091V191.152M80.4849 181.091H90.5455M80.4849 181.091V191.152H90.5455V181.091M221.333 181.091H211.273M221.333 181.091H231.394M221.333 181.091V191.152M211.273 181.091V191.152H221.333M231.394 181.091V191.152M271.636 181.091H261.576M271.636 181.091H281.697M271.636 181.091V191.152M261.576 181.091H251.515V191.152M261.576 181.091V191.152M281.697 181.091V191.152M301.818 181.091H291.758M301.818 181.091H311.879M301.818 181.091V191.152M291.758 181.091V191.152M311.879 181.091V191.152H301.818M30.1818 191.152H40.2424M30.1818 191.152V201.212M40.2424 191.152V201.212M40.2424 191.152H50.303M60.3636 191.152H50.303M60.3636 191.152H70.4243V201.212M60.3636 191.152V201.212M50.303 191.152V201.212H40.2424M221.333 191.152H231.394M221.333 191.152V201.212H231.394V191.152M261.576 191.152H251.515M261.576 191.152H271.636M261.576 191.152V201.212M251.515 191.152V201.212M271.636 191.152H281.697M281.697 191.152H291.758M281.697 191.152V201.212M301.818 191.152H291.758M291.758 191.152V201.212M40.2424 201.212H30.1818M30.1818 201.212H20.1212V211.273H30.1818V201.212ZM70.4243 201.212H60.3636M70.4243 201.212V211.273M60.3636 201.212V211.273M110.667 191.152H100.606V201.212M110.667 191.152V201.212M110.667 191.152H120.727V201.212M110.667 201.212H100.606M110.667 201.212H120.727M110.667 201.212V211.273M100.606 201.212V211.273M120.727 201.212V211.273H110.667M261.576 201.212H251.515M261.576 201.212H271.636V211.273M261.576 201.212V211.273H271.636M251.515 201.212H241.455V211.273M251.515 201.212V211.273M291.758 201.212H281.697M291.758 201.212V211.273M281.697 201.212V211.273M70.4243 211.273H60.3636M70.4243 211.273V221.333M70.4243 211.273H80.4849M60.3636 211.273V221.333M80.4849 211.273H90.5455V201.212H80.4849V211.273ZM80.4849 211.273V221.333M110.667 211.273H100.606M110.667 211.273V221.333H100.606V211.273M251.515 211.273H241.455M251.515 211.273V221.333M241.455 211.273H231.394V221.333M241.455 211.273V221.333M271.636 211.273H281.697M271.636 211.273V221.333M291.758 211.273H281.697M291.758 211.273V221.333M291.758 211.273H301.818M281.697 211.273V221.333M50.303 221.333V211.273H40.2424V221.333M50.303 221.333H40.2424M50.303 221.333H60.3636M50.303 221.333V231.394H60.3636M40.2424 221.333H30.1818V231.394H40.2424V221.333ZM70.4243 221.333H60.3636M70.4243 221.333H80.4849M70.4243 221.333V231.394H60.3636M60.3636 221.333V231.394M80.4849 221.333H90.5455V231.394H80.4849V221.333ZM150.909 211.273H140.849V221.333M150.909 211.273V221.333M150.909 211.273H160.97M150.909 221.333H140.849M150.909 221.333H160.97M150.909 221.333V231.394H160.97V221.333M140.849 221.333H130.788M140.849 221.333V231.394H130.788M160.97 211.273V221.333M160.97 211.273H171.03M160.97 221.333H171.03M171.03 211.273V221.333M171.03 211.273H181.091V221.333M171.03 221.333H181.091M181.091 221.333H191.152M181.091 221.333V231.394M201.212 221.333V211.273H191.152V221.333M201.212 221.333H191.152M201.212 221.333V231.394M201.212 221.333H211.273M191.152 221.333V231.394M221.333 221.333V211.273H211.273V221.333M221.333 221.333H211.273M221.333 221.333H231.394M221.333 221.333V231.394M211.273 221.333V231.394M241.455 221.333H231.394M241.455 221.333H251.515M241.455 221.333V231.394M231.394 221.333V231.394M251.515 221.333V231.394M251.515 221.333H261.576M281.697 221.333H271.636M281.697 221.333H291.758M281.697 221.333V231.394M271.636 221.333H261.576M271.636 221.333V231.394M291.758 221.333H301.818M291.758 221.333V231.394M301.818 211.273V221.333M301.818 211.273H311.879V221.333M301.818 221.333H311.879M301.818 221.333V231.394M311.879 221.333V231.394M130.788 221.333H120.727V231.394M130.788 221.333V231.394M130.788 231.394H120.727M120.727 231.394H110.667M120.727 231.394V241.455M191.152 231.394H181.091M191.152 231.394H201.212M191.152 231.394V241.455M181.091 231.394H171.03V241.455M181.091 231.394V241.455M201.212 231.394H211.273M201.212 231.394V241.455M211.273 231.394V241.455M231.394 231.394H221.333M231.394 231.394H241.455M231.394 231.394V241.455M221.333 231.394V241.455M241.455 231.394H251.515M251.515 231.394H261.576M261.576 221.333V231.394M261.576 231.394H271.636M261.576 231.394V241.455M271.636 231.394H281.697M271.636 231.394V241.455M281.697 231.394H291.758M281.697 231.394V241.455M291.758 231.394H301.818M291.758 231.394V241.455M301.818 231.394H311.879M301.818 231.394V241.455M311.879 231.394V241.455H301.818M110.667 231.394H100.606V241.455M110.667 231.394V241.455M110.667 241.455H100.606M110.667 241.455H120.727M110.667 241.455V251.515H100.606V241.455M120.727 241.455H130.788V251.515M120.727 241.455V251.515H130.788M181.091 241.455H171.03M181.091 241.455V251.515M181.091 241.455H191.152M171.03 241.455V251.515M201.212 241.455H191.152M201.212 241.455H211.273M201.212 241.455V251.515M191.152 241.455V251.515M211.273 241.455V251.515M211.273 241.455H221.333M231.394 241.455H221.333M231.394 241.455V251.515M221.333 241.455V251.515M271.636 241.455H261.576M271.636 241.455H281.697M271.636 241.455V251.515M261.576 241.455V251.515M281.697 241.455H291.758M281.697 241.455V251.515H291.758M301.818 241.455H291.758M301.818 241.455V251.515M291.758 241.455V251.515M30.1818 241.455H20.1212V251.515M30.1818 241.455V251.515M30.1818 241.455H40.2424M30.1818 251.515H20.1212M30.1818 251.515H40.2424M30.1818 251.515V261.576M20.1212 251.515V261.576M40.2424 241.455V251.515M40.2424 241.455H50.303M40.2424 251.515H50.303M50.303 241.455V251.515M50.303 241.455H60.3636M50.303 251.515H60.3636M60.3636 241.455V251.515M60.3636 241.455H70.4243M60.3636 251.515H70.4243M70.4243 241.455V251.515M70.4243 241.455H80.4849M70.4243 251.515H80.4849M80.4849 241.455V251.515M80.4849 241.455H90.5455V251.515M80.4849 251.515H90.5455M80.4849 251.515V261.576M90.5455 251.515V261.576M130.788 251.515H140.849V261.576M130.788 251.515V261.576H140.849M160.97 251.515V241.455H150.909V251.515H160.97ZM160.97 251.515H171.03M160.97 251.515V261.576M181.091 251.515H171.03M181.091 251.515H191.152M181.091 251.515V261.576M171.03 251.515V261.576M191.152 251.515V261.576M191.152 251.515H201.212M211.273 251.515H201.212M211.273 251.515H221.333M201.212 251.515V261.576M221.333 251.515H231.394M221.333 251.515V261.576M231.394 251.515V261.576M271.636 251.515H261.576M271.636 251.515V261.576M261.576 251.515V261.576M291.758 251.515H301.818M291.758 251.515V261.576M301.818 251.515V261.576M301.818 251.515H311.879V261.576M30.1818 261.576H20.1212M30.1818 261.576V271.636M20.1212 261.576V271.636M90.5455 261.576H80.4849M90.5455 261.576V271.636M80.4849 261.576V271.636M140.849 261.576H150.909M140.849 261.576V271.636M171.03 261.576H160.97M171.03 261.576H181.091M171.03 261.576V271.636M160.97 261.576H150.909M160.97 261.576V271.636M181.091 261.576H191.152M181.091 261.576V271.636M191.152 261.576H201.212M191.152 261.576V271.636M201.212 261.576V271.636M201.212 261.576H211.273V271.636M231.394 261.576H221.333M231.394 261.576V271.636M231.394 261.576H241.455M221.333 261.576V271.636M271.636 261.576H261.576M271.636 261.576V271.636M271.636 261.576H281.697M261.576 261.576H251.515M261.576 261.576V271.636M301.818 261.576H291.758M301.818 261.576H311.879M301.818 261.576V271.636M291.758 261.576H281.697M291.758 261.576V271.636M311.879 261.576V271.636H301.818M30.1818 271.636H20.1212M30.1818 271.636V281.697M20.1212 271.636V281.697M50.303 261.576H40.2424V271.636M50.303 261.576V271.636M50.303 261.576H60.3636M50.303 271.636H40.2424M50.303 271.636H60.3636M50.303 271.636V281.697M40.2424 271.636V281.697M60.3636 261.576V271.636M60.3636 261.576H70.4243V271.636M60.3636 271.636H70.4243M60.3636 271.636V281.697M70.4243 271.636V281.697M90.5455 271.636H80.4849M90.5455 271.636V281.697M80.4849 271.636V281.697M120.727 271.636V261.576H110.667V271.636M120.727 271.636H110.667M120.727 271.636V281.697M120.727 271.636H130.788V281.697M110.667 271.636H100.606V281.697M110.667 271.636V281.697M150.909 261.576V271.636M150.909 271.636H140.849M150.909 271.636H160.97M150.909 271.636V281.697M140.849 271.636V281.697H150.909M160.97 271.636H171.03M160.97 271.636V281.697M171.03 271.636V281.697M191.152 271.636H181.091M191.152 271.636H201.212M191.152 271.636V281.697M181.091 271.636V281.697M201.212 271.636H211.273M201.212 271.636V281.697M211.273 271.636H221.333M211.273 271.636V281.697M231.394 271.636H221.333M231.394 271.636H241.455M221.333 271.636V281.697M241.455 261.576V271.636M241.455 261.576H251.515M241.455 271.636H251.515M251.515 261.576V271.636M251.515 271.636H261.576M261.576 271.636H271.636M261.576 271.636V281.697M271.636 271.636H281.697M271.636 271.636V281.697M281.697 261.576V271.636M281.697 271.636H291.758M281.697 271.636V281.697M291.758 271.636H301.818M291.758 271.636V281.697M301.818 271.636V281.697M30.1818 281.697H20.1212M30.1818 281.697V291.758M20.1212 281.697V291.758M50.303 281.697H40.2424M50.303 281.697H60.3636M50.303 281.697V291.758M40.2424 281.697V291.758H50.303M60.3636 281.697H70.4243M60.3636 281.697V291.758M70.4243 281.697V291.758H60.3636M90.5455 281.697H80.4849M90.5455 281.697V291.758M80.4849 281.697V291.758M110.667 281.697H100.606M110.667 281.697H120.727M110.667 281.697V291.758M100.606 281.697V291.758H110.667M120.727 281.697H130.788M120.727 281.697V291.758M130.788 281.697V291.758M150.909 281.697H160.97M160.97 281.697H171.03M160.97 281.697V291.758M171.03 281.697V291.758M191.152 281.697H181.091M191.152 281.697H201.212M191.152 281.697V291.758H181.091M181.091 281.697V291.758M201.212 281.697H211.273M201.212 281.697V291.758M221.333 281.697H211.273M221.333 281.697H231.394V291.758M221.333 281.697V291.758M211.273 281.697V291.758M271.636 281.697H261.576M271.636 281.697H281.697M271.636 281.697V291.758M261.576 281.697H251.515V291.758M261.576 281.697V291.758M281.697 281.697V291.758M281.697 281.697H291.758M301.818 281.697H291.758M301.818 281.697H311.879V291.758H301.818M301.818 281.697V291.758M291.758 281.697V291.758M30.1818 291.758H20.1212M30.1818 291.758V301.818M20.1212 291.758V301.818M50.303 291.758H60.3636M90.5455 291.758H80.4849M90.5455 291.758V301.818M80.4849 291.758V301.818M110.667 291.758H120.727M110.667 291.758V301.818H120.727M120.727 291.758H130.788M120.727 291.758V301.818M130.788 291.758H140.849V301.818M130.788 291.758V301.818M171.03 291.758H160.97M171.03 291.758V301.818M171.03 291.758H181.091M160.97 291.758H150.909V301.818M160.97 291.758V301.818M181.091 291.758V301.818M211.273 291.758H201.212M211.273 291.758V301.818M201.212 291.758V301.818M231.394 291.758H221.333M231.394 291.758V301.818M221.333 291.758V301.818M261.576 291.758H251.515M261.576 291.758H271.636M261.576 291.758V301.818M251.515 291.758H241.455V301.818M251.515 291.758V301.818M281.697 291.758H271.636M281.697 291.758H291.758M281.697 291.758V301.818M271.636 291.758V301.818M291.758 291.758H301.818M291.758 291.758V301.818M301.818 291.758V301.818M30.1818 301.818H20.1212M30.1818 301.818V311.879M30.1818 301.818H40.2424M20.1212 301.818V311.879H30.1818M90.5455 301.818H80.4849M90.5455 301.818V311.879H80.4849M80.4849 301.818H70.4243M80.4849 301.818V311.879M120.727 301.818H130.788M120.727 301.818V311.879H130.788M140.849 301.818H130.788M140.849 301.818V311.879M140.849 301.818H150.909M130.788 301.818V311.879M160.97 301.818H150.909M160.97 301.818H171.03M160.97 301.818V311.879M150.909 301.818V311.879M171.03 301.818H181.091M171.03 301.818V311.879M181.091 301.818V311.879M181.091 301.818H191.152V311.879H181.091M211.273 301.818H201.212M211.273 301.818V311.879M211.273 301.818H221.333M201.212 301.818V311.879H211.273M231.394 301.818H221.333M231.394 301.818V311.879H221.333M221.333 301.818V311.879M251.515 301.818H241.455M251.515 301.818V311.879M251.515 301.818H261.576M241.455 301.818V311.879H251.515M271.636 301.818H261.576M271.636 301.818H281.697M271.636 301.818V311.879H281.697V301.818M261.576 301.818V311.879H251.515M301.818 301.818H291.758M301.818 301.818V311.879H291.758V301.818M30.1818 311.879H40.2424M40.2424 301.818V311.879M40.2424 301.818H50.303M40.2424 311.879H50.303M50.303 301.818V311.879M50.303 301.818H60.3636M50.303 311.879H60.3636M60.3636 301.818V311.879M60.3636 301.818H70.4243M60.3636 311.879H70.4243M70.4243 301.818V311.879M70.4243 311.879H80.4849M130.788 311.879H140.849M140.849 311.879H150.909M150.909 311.879H160.97M160.97 311.879H171.03M171.03 311.879H181.091M211.273 311.879H221.333M110.667 150.909H120.727V160.97H110.667V150.909ZM241.455 241.455H251.515V251.515H241.455V241.455Z" stroke="white" stroke-width="0.5"/>
    <path d="M183.53 135.652L167.599 159.237L183.251 159.437L152.714 198.377L164.924 166.971L149.423 166.931L167.104 131C167.104 131 171.737 131.129 175.723 132.251C179.697 133.37 183.53 135.652 183.53 135.652Z" fill="#FAB759"/>
    <path d="M187 137.996C188.311 138.981 189.562 140.064 190.755 141.245C194.056 144.578 196.588 148.369 198.353 152.617C200.118 156.866 201 161.327 201 166C201 170.673 200.118 175.126 198.353 179.358C196.588 183.59 194.056 187.372 190.755 190.706C187.422 194.039 183.631 196.588 179.383 198.353C175.134 200.117 170.673 201 166 201C162.906 201 159.909 200.613 157.009 199.84L165.638 188.791C165.759 188.793 165.879 188.794 166 188.794C170.216 188.794 174.048 187.765 177.495 185.706C180.943 183.647 183.696 180.894 185.755 177.446C187.814 173.998 188.843 170.183 188.843 166C188.843 161.784 187.814 157.952 185.755 154.505C184.261 152.003 182.402 149.867 180.177 148.097L187 137.996ZM162.375 131.181L155.125 145.916C154.933 146.022 154.743 146.132 154.554 146.245C151.106 148.304 148.353 151.057 146.294 154.505C144.235 157.952 143.206 161.784 143.206 166C143.206 170.183 144.235 173.998 146.294 177.446C148.182 180.607 150.653 183.185 153.709 185.178L149.388 196.793C146.446 195.189 143.748 193.16 141.294 190.706C137.961 187.372 135.412 183.59 133.647 179.358C131.882 175.126 131 170.673 131 166C131 161.327 131.882 156.866 133.647 152.617C135.412 148.369 137.961 144.578 141.294 141.245C144.627 137.944 148.41 135.411 152.642 133.647C155.766 132.344 159.011 131.522 162.375 131.181Z" fill="#FFF8EE"/>
</svg>
