<svg width="171" height="48" viewBox="0 0 171 48" fill="none" xmlns="http://www.w3.org/2000/svg">
<path d="M33.2628 3.18613L23.1748 19.3384L33.0863 19.4751L13.7494 46.1434L21.4811 24.6348L11.6658 24.6075L22.8616 0C22.8616 0 25.7953 0.0883419 28.319 0.856547C30.8358 1.62283 33.2628 3.18613 33.2628 3.18613Z" fill="#FAB759"/>
<path d="M35.4602 4.79152C36.2898 5.46562 37.0823 6.20742 37.8376 7.01634C39.9277 9.29906 41.5314 11.8955 42.6488 14.8048C43.7664 17.7144 44.3249 20.7694 44.3249 23.97C44.3249 27.1705 43.7664 30.2198 42.6488 33.1181C41.5314 36.0165 39.9277 38.6071 37.8376 40.8899C35.727 43.1729 33.3267 44.9186 30.6365 46.1271C27.9463 47.3356 25.1217 47.94 22.1625 47.94C20.2034 47.94 18.3057 47.6752 16.4692 47.1455L21.9331 39.5788C22.0096 39.58 22.086 39.5805 22.1625 39.5805C24.8319 39.5805 27.2583 38.8756 29.4414 37.4658C31.6247 36.0556 33.368 34.1702 34.6717 31.8088C35.9753 29.4477 36.6271 26.8346 36.6271 23.97C36.6271 21.0828 35.9753 18.4585 34.6717 16.0974C33.7257 14.3842 32.5484 12.9213 31.1396 11.7091L35.4602 4.79152ZM19.867 0.12439L15.2762 10.2151C15.155 10.288 15.0346 10.3632 14.9147 10.4407C12.7317 11.8506 10.9881 13.7363 9.68461 16.0974C8.38081 18.4585 7.72904 21.0828 7.72904 23.97C7.72904 26.8346 8.38081 29.4477 9.68461 31.8088C10.8797 33.9737 12.4448 35.739 14.3796 37.1042L11.6434 45.0586C9.78076 43.9605 8.07237 42.5708 6.51847 40.8899C4.40762 38.6071 2.79378 36.0165 1.67616 33.1181C0.558809 30.2198 0 27.1705 0 23.97C0 20.7694 0.558809 17.7144 1.67616 14.8048C2.79378 11.8955 4.40762 9.29906 6.51847 7.01634C8.62905 4.7558 11.0244 3.02129 13.7041 1.81281C15.6824 0.920634 17.7367 0.357732 19.867 0.12439Z" fill="white"/>
<path d="M75.5239 47.9649H67.9591V27.7511C67.9591 26.1698 67.387 24.8634 66.3699 23.6946C65.3528 22.5945 64.0814 22.0445 62.6828 22.0445C61.4114 22.0445 60.3308 22.457 59.3772 23.2821C58.4237 24.1071 57.8515 25.1384 57.5337 26.4448V47.9649H49.7782V13.7252H57.5337V16.6817C57.9787 15.9941 58.6779 15.4441 59.5679 15.0316C60.4579 14.5503 61.3479 14.2753 62.1743 14.069C63.0643 13.794 63.6364 13.7252 64.0178 13.7252C67.4506 13.7252 70.3112 15.1003 72.409 17.8505C74.5068 20.5319 75.5239 23.8321 75.5239 27.7511V47.9649Z" fill="white"/>
<path d="M102.507 13.7252H94.6226V47.9346H102.507V13.7252Z" fill="white"/>
<path d="M98.562 9.09809C100.876 9.09809 102.752 7.06904 102.752 4.56608C102.752 2.06311 100.876 0.0340576 98.562 0.0340576C96.2478 0.0340576 94.3718 2.06311 94.3718 4.56608C94.3718 7.06904 96.2478 9.09809 98.562 9.09809Z" fill="white"/>
<path d="M81.0125 47.9672V45.217C81.0125 31.1911 81.0125 17.1652 81.0125 3.13936V0.0454102H88.8951V3.13936C88.8951 17.1652 88.8951 31.1911 88.8951 45.217V47.9672H81.0125Z" fill="white"/>
<path d="M133.957 47.9649H126.393V27.7511C126.393 26.1698 125.821 24.8634 124.803 23.6946C123.786 22.5945 122.515 22.0445 121.116 22.0445C119.845 22.0445 118.764 22.457 117.811 23.2821C116.857 24.1071 116.285 25.1384 115.967 26.4448V47.9649H108.212V13.7252H115.967V16.6817C116.412 15.9941 117.111 15.4441 118.001 15.0316C118.891 14.5503 119.781 14.2753 120.608 14.069C121.498 13.794 122.07 13.7252 122.451 13.7252C125.884 13.7252 128.745 15.1003 130.843 17.8505C132.94 20.5319 133.957 23.8321 133.957 27.7511V47.9649Z" fill="white"/>
<path fill-rule="evenodd" clip-rule="evenodd" d="M169.689 37.7433C167.253 43.7779 161.685 48 155.213 48C146.499 48 139.425 40.3486 139.425 30.9248C139.425 21.5006 146.499 13.8496 155.213 13.8496C163.926 13.8496 171 21.5006 171 30.9248C171 31.9869 170.91 33.0266 170.738 34.0354H156.135H147.706C148.88 37.2783 151.8 39.5775 155.213 39.5775C157.075 39.5775 158.791 38.8927 160.156 37.7433H169.689ZM162.719 27.688C161.545 24.4451 158.625 22.1459 155.213 22.1459C151.8 22.1459 148.88 24.4451 147.706 27.688H162.719Z" fill="white"/>
</svg>
