<svg width="45" height="41" viewBox="0 0 45 41" fill="none" xmlns="http://www.w3.org/2000/svg">
<rect y="0.5" width="40" height="40" rx="15" fill="#153E75"/>
<path fill-rule="evenodd" clip-rule="evenodd" d="M14.4615 8.5C14.9713 8.5 15.3846 8.91328 15.3846 9.42308V10.3462H24.6154V9.42308C24.6154 8.91328 25.0287 8.5 25.5385 8.5C26.0482 8.5 26.4615 8.91328 26.4615 9.42308V10.3462H29.2308C30.7601 10.3462 32 11.586 32 13.1154V29.7308C32 31.2601 30.7601 32.5 29.2308 32.5H10.7692C9.23982 32.5 8 31.2601 8 29.7308V13.1154C8 11.586 9.23982 10.3462 10.7692 10.3462H13.5385V9.42308C13.5385 8.91328 13.9517 8.5 14.4615 8.5ZM24.6154 12.1923V13.1154C24.6154 13.6252 25.0287 14.0385 25.5385 14.0385C26.0482 14.0385 26.4615 13.6252 26.4615 13.1154V12.1923H29.2308C29.7405 12.1923 30.1538 12.6056 30.1538 13.1154V15.8846H9.84615V13.1154C9.84615 12.6056 10.2594 12.1923 10.7692 12.1923H13.5385V13.1154C13.5385 13.6252 13.9517 14.0385 14.4615 14.0385C14.9713 14.0385 15.3846 13.6252 15.3846 13.1154V12.1923H24.6154ZM9.84615 17.7308V29.7308C9.84615 30.2405 10.2594 30.6538 10.7692 30.6538H29.2308C29.7405 30.6538 30.1538 30.2405 30.1538 29.7308V17.7308H9.84615ZM19.0769 20.5C19.0769 19.9902 19.4902 19.5769 20 19.5769C20.5098 19.5769 20.9231 19.9902 20.9231 20.5C20.9231 21.0098 20.5098 21.4231 20 21.4231C19.4902 21.4231 19.0769 21.0098 19.0769 20.5ZM23.6923 19.5769C23.1825 19.5769 22.7692 19.9902 22.7692 20.5C22.7692 21.0098 23.1825 21.4231 23.6923 21.4231C24.2021 21.4231 24.6154 21.0098 24.6154 20.5C24.6154 19.9902 24.2021 19.5769 23.6923 19.5769ZM26.4615 20.5C26.4615 19.9902 26.8749 19.5769 27.3846 19.5769C27.8943 19.5769 28.3077 19.9902 28.3077 20.5C28.3077 21.0098 27.8943 21.4231 27.3846 21.4231C26.8749 21.4231 26.4615 21.0098 26.4615 20.5ZM27.3846 23.2692C26.8749 23.2692 26.4615 23.6825 26.4615 24.1923C26.4615 24.7021 26.8749 25.1154 27.3846 25.1154C27.8943 25.1154 28.3077 24.7021 28.3077 24.1923C28.3077 23.6825 27.8943 23.2692 27.3846 23.2692ZM22.7692 24.1923C22.7692 23.6825 23.1825 23.2692 23.6923 23.2692C24.2021 23.2692 24.6154 23.6825 24.6154 24.1923C24.6154 24.7021 24.2021 25.1154 23.6923 25.1154C23.1825 25.1154 22.7692 24.7021 22.7692 24.1923ZM20 23.2692C19.4902 23.2692 19.0769 23.6825 19.0769 24.1923C19.0769 24.7021 19.4902 25.1154 20 25.1154C20.5098 25.1154 20.9231 24.7021 20.9231 24.1923C20.9231 23.6825 20.5098 23.2692 20 23.2692ZM15.3846 24.1923C15.3846 23.6825 15.7979 23.2692 16.3077 23.2692C16.8175 23.2692 17.2308 23.6825 17.2308 24.1923C17.2308 24.7021 16.8175 25.1154 16.3077 25.1154C15.7979 25.1154 15.3846 24.7021 15.3846 24.1923ZM12.6154 23.2692C12.1056 23.2692 11.6923 23.6825 11.6923 24.1923C11.6923 24.7021 12.1056 25.1154 12.6154 25.1154C13.1252 25.1154 13.5385 24.7021 13.5385 24.1923C13.5385 23.6825 13.1252 23.2692 12.6154 23.2692ZM11.6923 27.8846C11.6923 27.3749 12.1056 26.9615 12.6154 26.9615C13.1252 26.9615 13.5385 27.3749 13.5385 27.8846C13.5385 28.3943 13.1252 28.8077 12.6154 28.8077C12.1056 28.8077 11.6923 28.3943 11.6923 27.8846ZM16.3077 26.9615C15.7979 26.9615 15.3846 27.3749 15.3846 27.8846C15.3846 28.3943 15.7979 28.8077 16.3077 28.8077C16.8175 28.8077 17.2308 28.3943 17.2308 27.8846C17.2308 27.3749 16.8175 26.9615 16.3077 26.9615ZM19.0769 27.8846C19.0769 27.3749 19.4902 26.9615 20 26.9615C20.5098 26.9615 20.9231 27.3749 20.9231 27.8846C20.9231 28.3943 20.5098 28.8077 20 28.8077C19.4902 28.8077 19.0769 28.3943 19.0769 27.8846ZM23.6923 26.9615C23.1825 26.9615 22.7692 27.3749 22.7692 27.8846C22.7692 28.3943 23.1825 28.8077 23.6923 28.8077C24.2021 28.8077 24.6154 28.3943 24.6154 27.8846C24.6154 27.3749 24.2021 26.9615 23.6923 26.9615Z" fill="#FFEDB3"/>
<rect x="31" y="0.5" width="13.2456" height="13.2457" rx="6.62281" fill="#36B37E"/>
<path fill-rule="evenodd" clip-rule="evenodd" d="M37.6228 0.5C33.9651 0.5 31 3.46514 31 7.12283C31 10.7805 33.9651 13.7457 37.6228 13.7457C41.2805 13.7457 44.2456 10.7805 44.2456 7.12283C44.2456 3.46514 41.2805 0.5 37.6228 0.5ZM31.95 7.12283C31.95 3.98981 34.4898 1.44999 37.6228 1.44999C40.7558 1.44999 43.2956 3.98981 43.2956 7.12283C43.2956 10.2559 40.7558 12.7957 37.6228 12.7957C34.4898 12.7957 31.95 10.2559 31.95 7.12283ZM40.2818 5.1607C40.4407 4.93486 40.3865 4.62297 40.1607 4.46405C39.9349 4.30513 39.623 4.35938 39.464 4.58521L36.6427 8.5945L35.4797 7.41001C35.2863 7.21297 34.9697 7.21006 34.7727 7.40353C34.5756 7.59699 34.5727 7.91356 34.7662 8.1106L36.3495 9.72326C36.4535 9.82915 36.5991 9.88336 36.747 9.87125C36.8949 9.85925 37.0298 9.78205 37.1152 9.66066L40.2818 5.1607Z" fill="white"/>
</svg>
