<svg width="16" height="17" viewBox="0 0 16 17" fill="none" xmlns="http://www.w3.org/2000/svg">
<path fill-rule="evenodd" clip-rule="evenodd" d="M1.91904 3.08579C2.29411 2.71071 2.80282 2.5 3.33325 2.5H12.6666C13.197 2.5 13.7057 2.71071 14.0808 3.08579C14.4559 3.46086 14.6666 3.96957 14.6666 4.5V5.5C14.6666 5.86819 14.3681 6.16667 13.9999 6.16667C13.6317 6.16667 13.3333 5.86819 13.3333 5.5V4.5C13.3333 4.32319 13.263 4.15362 13.138 4.0286C13.013 3.90357 12.8434 3.83333 12.6666 3.83333H3.33325C3.15644 3.83333 2.98687 3.90357 2.86185 4.0286C2.73682 4.15362 2.66659 4.32319 2.66659 4.5V13.8333C2.66659 14.0101 2.73682 14.1797 2.86185 14.3047C2.98687 14.4298 3.15644 14.5 3.33325 14.5H5.66658C6.03477 14.5 6.33325 14.7985 6.33325 15.1667C6.33325 15.5349 6.03477 15.8333 5.66658 15.8333H3.33325C2.80282 15.8333 2.29411 15.6226 1.91904 15.2475C1.54397 14.8725 1.33325 14.3638 1.33325 13.8333V4.5C1.33325 3.96957 1.54397 3.46086 1.91904 3.08579Z" fill="#FFFFFF"/>
<path fill-rule="evenodd" clip-rule="evenodd" d="M10.6667 1.16667C11.0349 1.16667 11.3333 1.46515 11.3333 1.83334V4.50001C11.3333 4.8682 11.0349 5.16667 10.6667 5.16667C10.2985 5.16667 10 4.8682 10 4.50001V1.83334C10 1.46515 10.2985 1.16667 10.6667 1.16667Z" fill="#FFFFFF"/>
<path fill-rule="evenodd" clip-rule="evenodd" d="M5.33341 1.16667C5.7016 1.16667 6.00008 1.46515 6.00008 1.83334V4.50001C6.00008 4.8682 5.7016 5.16667 5.33341 5.16667C4.96522 5.16667 4.66675 4.8682 4.66675 4.50001V1.83334C4.66675 1.46515 4.96522 1.16667 5.33341 1.16667Z" fill="#FFFFFF"/>
<path fill-rule="evenodd" clip-rule="evenodd" d="M1.33325 7.16667C1.33325 6.79848 1.63173 6.5 1.99992 6.5H5.33325C5.70144 6.5 5.99992 6.79848 5.99992 7.16667C5.99992 7.53486 5.70144 7.83333 5.33325 7.83333H1.99992C1.63173 7.83333 1.33325 7.53486 1.33325 7.16667Z" fill="#FFFFFF"/>
<path fill-rule="evenodd" clip-rule="evenodd" d="M10.6667 9.16666C11.0349 9.16666 11.3333 9.46514 11.3333 9.83333V11.0211L12.0935 11.6545C12.3763 11.8902 12.4145 12.3106 12.1788 12.5935C11.9431 12.8763 11.5227 12.9145 11.2399 12.6788L10.2399 11.8455C10.0879 11.7188 10 11.5312 10 11.3333V9.83333C10 9.46514 10.2985 9.16666 10.6667 9.16666Z" fill="#FFFFFF"/>
<path fill-rule="evenodd" clip-rule="evenodd" d="M10.6667 7.83333C9.78261 7.83333 8.93477 8.18452 8.30964 8.80964C7.68452 9.43477 7.33333 10.2826 7.33333 11.1667C7.33333 12.0507 7.68452 12.8986 8.30964 13.5237C8.93477 14.1488 9.78261 14.5 10.6667 14.5C11.5507 14.5 12.3986 14.1488 13.0237 13.5237C13.6488 12.8986 14 12.0507 14 11.1667C14 10.2826 13.6488 9.43477 13.0237 8.80964C12.3986 8.18452 11.5507 7.83333 10.6667 7.83333ZM7.36683 7.86683C8.242 6.99167 9.42899 6.5 10.6667 6.5C11.9043 6.5 13.0913 6.99167 13.9665 7.86683C14.8417 8.742 15.3333 9.92899 15.3333 11.1667C15.3333 12.4043 14.8417 13.5913 13.9665 14.4665C13.0913 15.3417 11.9043 15.8333 10.6667 15.8333C9.42899 15.8333 8.242 15.3417 7.36683 14.4665C6.49167 13.5913 6 12.4043 6 11.1667C6 9.92899 6.49167 8.742 7.36683 7.86683Z" fill="#FFFFFF"/>
</svg>
