<svg xmlns="http://www.w3.org/2000/svg" viewBox="0 0 24 24" height="24" width="24">
    <title>interface-essential-heart-favorite</title>
    <g>
        <path d="M22.8525 6.285H24V12h-1.1475Z" fill="#ffffff" stroke-width="1"></path>
        <path d="M21.7125 12h1.1400000000000001v2.2874999999999996h-1.1400000000000001Z"
            fill="#ffffff" stroke-width="1"></path>
        <path
            d="M21.7125 5.1450000000000005h1.1400000000000001v1.1400000000000001h-1.1400000000000001Z"
            fill="#ffffff" stroke-width="1"></path>
        <path
            d="M20.572499999999998 14.287500000000001h1.1400000000000001v1.1400000000000001h-1.1400000000000001Z"
            fill="#ffffff" stroke-width="1"></path>
        <path
            d="M20.572499999999998 7.425000000000001h1.1400000000000001v2.2874999999999996h-1.1400000000000001Z"
            fill="#ffffff" stroke-width="1"></path>
        <path d="M20.572499999999998 3.9975h1.1400000000000001v1.1475h-1.1400000000000001Z"
            fill="#ffffff" stroke-width="1"></path>
        <path d="M19.424999999999997 6.285h1.1475V7.425000000000001H19.424999999999997Z"
            fill="#ffffff" stroke-width="1"></path>
        <path d="M18.285 15.4275h2.2874999999999996v1.1400000000000001h-2.2874999999999996Z"
            fill="#ffffff" stroke-width="1"></path>
        <path
            d="M17.137500000000003 5.1450000000000005h2.2874999999999996v1.1400000000000001h-2.2874999999999996Z"
            fill="#ffffff" stroke-width="1"></path>
        <path d="M15.997499999999999 16.5675h2.2874999999999996v1.1475h-2.2874999999999996Z"
            fill="#ffffff" stroke-width="1"></path>
        <path d="M14.857499999999998 2.8575h5.715v1.1400000000000001h-5.715Z" fill="#ffffff"
            stroke-width="1"></path>
        <path d="M13.71 17.715h2.2874999999999996v1.1400000000000001h-2.2874999999999996Z"
            fill="#ffffff" stroke-width="1"></path>
        <path d="M13.71 3.9975h1.1475v1.1475h-1.1475Z" fill="#ffffff" stroke-width="1"></path>
        <path d="M12.57 18.855h1.1400000000000001v1.1400000000000001h-1.1400000000000001Z"
            fill="#ffffff" stroke-width="1"></path>
        <path
            d="M12.57 5.1450000000000005h1.1400000000000001v1.1400000000000001h-1.1400000000000001Z"
            fill="#ffffff" stroke-width="1"></path>
        <path d="M11.43 19.995h1.1400000000000001v1.1475h-1.1400000000000001Z" fill="#ffffff"
            stroke-width="1"></path>
        <path d="M11.43 6.285h1.1400000000000001V7.425000000000001h-1.1400000000000001Z"
            fill="#ffffff" stroke-width="1"></path>
        <path d="M10.2825 18.855h1.1475v1.1400000000000001h-1.1475Z" fill="#ffffff" stroke-width="1"></path>
        <path d="M10.2825 5.1450000000000005h1.1475v1.1400000000000001h-1.1475Z" fill="#ffffff"
            stroke-width="1"></path>
        <path d="M7.995 17.715h2.2874999999999996v1.1400000000000001h-2.2874999999999996Z"
            fill="#ffffff" stroke-width="1"></path>
        <path d="M9.1425 3.9975h1.1400000000000001v1.1475h-1.1400000000000001Z" fill="#ffffff"
            stroke-width="1"></path>
        <path d="M5.715 16.5675h2.2800000000000002v1.1475H5.715Z" fill="#ffffff" stroke-width="1"></path>
        <path d="M3.4275 15.4275h2.2874999999999996v1.1400000000000001H3.4275Z" fill="#ffffff"
            stroke-width="1"></path>
        <path d="M3.4275 2.8575h5.715v1.1400000000000001H3.4275Z" fill="#ffffff" stroke-width="1"></path>
        <path
            d="M2.2874999999999996 14.287500000000001h1.1400000000000001v1.1400000000000001H2.2874999999999996Z"
            fill="#ffffff" stroke-width="1"></path>
        <path d="M2.2874999999999996 3.9975h1.1400000000000001v1.1475H2.2874999999999996Z"
            fill="#ffffff" stroke-width="1"></path>
        <path d="M1.1400000000000001 12h1.1475v2.2874999999999996H1.1400000000000001Z"
            fill="#ffffff" stroke-width="1"></path>
        <path
            d="M1.1400000000000001 5.1450000000000005h1.1475v1.1400000000000001H1.1400000000000001Z"
            fill="#ffffff" stroke-width="1"></path>
        <path d="M0 6.285h1.1400000000000001V12H0Z" fill="#ffffff" stroke-width="1"></path>
    </g>
</svg>