<svg xmlns="http://www.w3.org/2000/svg" viewBox="0 0 24 24" height="24" width="24">
    <title>multiple-user</title>
    <g>
        <path d="M22.86 13.713750000000001H24v1.1475h-1.1400000000000001Z" fill="#FFA500" stroke-width="1"></path>
        <path d="M20.572499999999998 12.57375h2.2874999999999996v1.1400000000000001h-2.2874999999999996Z" fill="#FFA500" stroke-width="1"></path>
        <path d="M20.572499999999998 10.286249999999999h1.1400000000000001v1.1475h-1.1400000000000001Z" fill="#FFA500" stroke-width="1"></path>
        <path d="m17.145 11.43375 0 -2.2874999999999996 -1.1400000000000001 0 0 -1.1475 -1.1475 0 0 -2.2800000000000002 1.1475 0 0 -1.1475 4.5675 0 0 1.1475 1.1400000000000001 0 0 4.5675 1.1475 0 0 -6.855 -1.1475 0 0 -1.1475 -1.1400000000000001 0 0 -1.1400000000000001 -4.5675 0 0 1.1400000000000001 -1.1475 0 0 1.1475 -1.1400000000000001 0 0 3.4275 -3.4275 0 0 -3.4275 -1.1475 0 0 -1.1475 -1.1400000000000001 0 0 -1.1400000000000001 -4.574999999999999 0 0 1.1400000000000001 -1.1400000000000001 0 0 1.1475 -1.1400000000000001 0 0 6.855 1.1400000000000001 0 0 -4.5675 1.1400000000000001 0 0 -1.1475 4.574999999999999 0 0 1.1475 1.1400000000000001 0 0 2.2800000000000002 -1.1400000000000001 0 0 1.1475 -1.1400000000000001 0 0 2.2874999999999996 -3.435 0 0 1.1400000000000001 3.435 0 0 4.5675 1.1400000000000001 0 0 -5.7075000000000005 1.1400000000000001 0 0 -1.1475 5.715 0 0 1.1475 1.1475 0 0 5.7075000000000005 1.1400000000000001 0 0 -4.5675 3.4275 0 0 -1.1400000000000001 -3.4275 0z" fill="#FFA500" stroke-width="1"></path>
        <path d="M18.285 21.71625h1.1475v1.1400000000000001h-1.1475Z" fill="#FFA500" stroke-width="1"></path>
        <path d="M17.145 20.576249999999998h1.1400000000000001v1.1400000000000001h-1.1400000000000001Z" fill="#FFA500" stroke-width="1"></path>
        <path d="M14.857499999999998 19.42875h2.2874999999999996v1.1475h-2.2874999999999996Z" fill="#FFA500" stroke-width="1"></path>
        <path d="M14.857499999999998 17.14125h1.1475v1.1475h-1.1475Z" fill="#FFA500" stroke-width="1"></path>
        <path d="M13.7175 12.57375h1.1400000000000001v2.2874999999999996h-1.1400000000000001Z" fill="#FFA500" stroke-width="1"></path>
        <path d="M9.1425 18.28875h5.715v1.1400000000000001h-5.715Z" fill="#FFA500" stroke-width="1"></path>
        <path d="M10.290000000000001 16.00125h3.4275v1.1400000000000001h-3.4275Z" fill="#FFA500" stroke-width="1"></path>
        <path d="M9.1425 12.57375h1.1475v2.2874999999999996h-1.1475Z" fill="#FFA500" stroke-width="1"></path>
        <path d="M8.0025 17.14125h1.1400000000000001v1.1475h-1.1400000000000001Z" fill="#FFA500" stroke-width="1"></path>
        <path d="M6.862500000000001 19.42875h2.2800000000000002v1.1475H6.862500000000001Z" fill="#FFA500" stroke-width="1"></path>
        <path d="M5.715 20.576249999999998h1.1475v1.1400000000000001H5.715Z" fill="#FFA500" stroke-width="1"></path>
        <path d="M4.574999999999999 21.71625h1.1400000000000001v1.1400000000000001H4.574999999999999Z" fill="#FFA500" stroke-width="1"></path>
        <path d="M2.2874999999999996 10.286249999999999h1.1400000000000001v1.1475H2.2874999999999996Z" fill="#FFA500" stroke-width="1"></path>
        <path d="M1.1475 12.57375h2.2800000000000002v1.1400000000000001H1.1475Z" fill="#FFA500" stroke-width="1"></path>
        <path d="M0 13.713750000000001h1.1475v1.1475H0Z" fill="#FFA500" stroke-width="1"></path>
    </g>
</svg>