<?xml version="1.0" encoding="UTF-8"?>
<svg xmlns="http://www.w3.org/2000/svg" viewBox="0 0 24 24" fill="#FFFFFF">
  <path d="m12,9.414v1.586c0,.553.447,1,1,1h1.586c1.068,0,2.072-.416,2.828-1.172l5.707-5.707c1.17-1.17,1.17-3.072,0-4.242s-3.072-1.17-4.242,0l-5.707,5.707c-.756.756-1.172,1.76-1.172,2.828Zm2,0c0-.534.208-1.036.586-1.414l5.707-5.707c.391-.391,1.023-.391,1.414,0s.39,1.024,0,1.414l-5.707,5.707c-.378.378-.88.586-1.414.586h-.586v-.586Zm7,7.586h-1v-3c0-.553-.447-1-1-1s-1,.447-1,1v3h-5c-1.654,0-3,1.346-3,3v.5c0,.827-.673,1.5-1.5,1.5s-1.5-.673-1.5-1.5V3.5c0-.539-.133-1.044-.351-1.5h7.351c.553,0,1-.447,1-1s-.447-1-1-1H3.5C1.57,0,0,1.57,0,3.5v.5c0,1.654,1.346,3,3,3h2v13.5c0,1.93,1.569,3.499,3.498,3.5h12.002c1.93,0,3.5-1.57,3.5-3.5v-.5c0-1.654-1.346-3-3-3ZM5,5h-2c-.552,0-1-.448-1-1v-.5c0-.827.673-1.5,1.5-1.5s1.5.673,1.5,1.5v1.5Zm17,15.5c0,.827-.673,1.5-1.5,1.5h-8.838c.217-.455.338-.964.338-1.5v-.5c0-.552.448-1,1-1h8c.552,0,1,.448,1,1v.5Z"/>
</svg>
