<?xml version="1.0" encoding="UTF-8"?>
<svg xmlns="http://www.w3.org/2000/svg" viewBox="0 0 24 24" width="512" height="512" fill="#FFFFFF">
    <path d="M9,12c-3.309,0-6-2.691-6-6S5.691,0,9,0s6,2.691,6,6-2.691,6-6,6Zm4.27,7.48c-.813,.813-1.27,1.915-1.27,3.065v1.455h1.455c1.15,0,2.252-.457,3.065-1.27l6.807-6.807c.897-.897,.897-2.353,0-3.25-.897-.897-2.353-.897-3.25,0l-6.807,6.807Zm-3.27,3.065c0-1.692,.659-3.283,1.855-4.479l2.376-2.376c-1.476-1.06-3.279-1.691-5.231-1.691C4.038,14,0,18.038,0,23c0,.552,.448,1,1,1H10v-1.455Z"/>
</svg>
