<svg width="12" height="12" viewBox="0 0 12 12" fill="none"
    xmlns="http://www.w3.org/2000/svg">
    <path d="M4.5 5.5C5.60457 5.5 6.5 4.60457 6.5 3.5C6.5 2.39543 5.60457 1.5 4.5 1.5C3.39543 1.5 2.5 2.39543 2.5 3.5C2.5 4.60457 3.39543 5.5 4.5 5.5Z" stroke="#25D0AB" stroke-linecap="round" stroke-linejoin="round"/>
    <path d="M1.5 10.5V9.5C1.5 8.96957 1.71071 8.46086 2.08579 8.08579C2.46086 7.71071 2.96957 7.5 3.5 7.5H5.5C6.03043 7.5 6.53914 7.71071 6.91421 8.08579C7.28929 8.46086 7.5 8.96957 7.5 9.5V10.5" stroke="#25D0AB" stroke-linecap="round" stroke-linejoin="round"/>
    <path d="M8 1.565C8.43021 1.67515 8.81152 1.92535 9.08382 2.27616C9.35612 2.62696 9.50392 3.05842 9.50392 3.5025C9.50392 3.94659 9.35612 4.37804 9.08382 4.72885C8.81152 5.07965 8.43021 5.32985 8 5.44" stroke="#25D0AB" stroke-linecap="round" stroke-linejoin="round"/>
    <path d="M10.5 10.5V9.50001C10.4975 9.05859 10.349 8.63041 10.0776 8.28221C9.80631 7.93401 9.42741 7.68536 9 7.57501" stroke="#25D0AB" stroke-linecap="round" stroke-linejoin="round"/>
</svg>
